<svg width="122" height="92" viewBox="0 0 122 92" fill="none" xmlns="http://www.w3.org/2000/svg">
<path d="M64.7887 12.561C64.7874 12.974 64.6638 13.3772 64.4334 13.7199C64.2031 14.0626 63.8764 14.3293 63.4945 14.4864C63.1127 14.6435 62.6928 14.6839 62.288 14.6026C61.8832 14.5212 61.5116 14.3218 61.2201 14.0293C60.9286 13.7369 60.7303 13.3646 60.6502 12.9596C60.5701 12.5545 60.6119 12.1348 60.7702 11.7535C60.9285 11.3721 61.1963 11.0462 61.5397 10.817C61.8831 10.5877 62.2867 10.4653 62.6996 10.4653C62.9745 10.4653 63.2467 10.5196 63.5006 10.625C63.7545 10.7304 63.9851 10.8849 64.1792 11.0796C64.3733 11.2742 64.527 11.5053 64.6316 11.7596C64.7362 12.0138 64.7896 12.2861 64.7887 12.561Z" fill="white"/>
<path d="M88.2779 69.4628C88.0839 69.6568 87.93 69.8872 87.825 70.1407C87.72 70.3942 87.6659 70.666 87.6659 70.9404C87.6659 71.2148 87.72 71.4865 87.825 71.74C87.93 71.9936 88.0839 72.2239 88.2779 72.418C88.472 72.612 88.7023 72.7659 88.9559 72.8709C89.2094 72.9759 89.4811 73.03 89.7555 73.03C90.0299 73.03 90.3017 72.9759 90.5552 72.8709C90.8087 72.7659 91.0391 72.612 91.2331 72.418C94.7654 68.8936 99.5514 66.9143 104.541 66.9143C109.531 66.9143 114.317 68.8936 117.849 72.418C118.043 72.612 118.274 72.7659 118.527 72.8709C118.781 72.9759 119.053 73.03 119.327 73.03C119.601 73.03 119.873 72.9759 120.127 72.8709C120.38 72.7659 120.61 72.612 120.805 72.418C120.999 72.2239 121.152 71.9936 121.258 71.74C121.363 71.4865 121.417 71.2148 121.417 70.9404C121.417 70.666 121.363 70.3942 121.258 70.1407C121.152 69.8872 120.999 69.6568 120.805 69.4628C116.489 65.1544 110.64 62.7346 104.541 62.7346C98.443 62.7346 92.5938 65.1544 88.2779 69.4628Z" fill="#2A363B"/>
<path d="M113.413 78.9431C113.826 78.9432 114.23 78.821 114.573 78.5919C114.917 78.3627 115.185 78.0369 115.343 77.6557C115.502 77.2744 115.544 76.8547 115.464 76.4496C115.384 76.0445 115.186 75.6722 114.894 75.3797C113.535 74.0198 111.922 72.941 110.146 72.205C108.37 71.4689 106.467 71.0901 104.545 71.0901C102.622 71.0901 100.719 71.4689 98.9429 72.205C97.167 72.941 95.5536 74.0198 94.1949 75.3797C94.0008 75.5737 93.8469 75.8041 93.7419 76.0576C93.6369 76.3111 93.5828 76.5828 93.5828 76.8572C93.5828 77.1317 93.6369 77.4034 93.7419 77.6569C93.8469 77.9104 94.0008 78.1408 94.1949 78.3348C94.3889 78.5289 94.6193 78.6828 94.8728 78.7878C95.1263 78.8928 95.398 78.9469 95.6725 78.9469C95.9469 78.9469 96.2186 78.8928 96.4721 78.7878C96.7256 78.6828 96.956 78.5289 97.15 78.3348C98.1206 77.3641 99.2729 76.5941 100.541 76.0688C101.809 75.5434 103.169 75.273 104.541 75.273C105.914 75.273 107.273 75.5434 108.541 76.0688C109.81 76.5941 110.962 77.3641 111.932 78.3348C112.127 78.5289 112.358 78.6825 112.612 78.7869C112.866 78.8913 113.139 78.9444 113.413 78.9431Z" fill="#2A363B"/>
<path d="M98.2673 85.7261C98.2673 86.9669 98.6353 88.1799 99.3247 89.2117C100.014 90.2434 100.994 91.0476 102.14 91.5224C103.287 91.9973 104.548 92.1215 105.765 91.8795C106.982 91.6374 108.1 91.0398 108.978 90.1624C109.855 89.285 110.453 88.1671 110.695 86.9501C110.937 85.733 110.812 84.4716 110.338 83.3252C109.863 82.1787 109.059 81.1989 108.027 80.5095C106.995 79.8201 105.782 79.4521 104.541 79.4521C102.878 79.4539 101.283 80.1155 100.107 81.2917C98.9306 82.4679 98.2691 84.0627 98.2673 85.7261ZM106.637 85.7261C106.638 86.1408 106.516 86.5467 106.287 86.8922C106.058 87.2377 105.731 87.5073 105.348 87.667C104.965 87.8266 104.543 87.8691 104.136 87.7889C103.729 87.7088 103.355 87.5097 103.062 87.2169C102.768 86.9241 102.568 86.5507 102.486 86.144C102.405 85.7373 102.446 85.3155 102.604 84.9322C102.763 84.5489 103.031 84.2212 103.376 83.9906C103.721 83.7601 104.126 83.637 104.541 83.637C105.096 83.637 105.628 83.8569 106.021 84.2485C106.414 84.6401 106.635 85.1714 106.637 85.7261Z" fill="#2A363B"/>
<path d="M33.267 27.1782C33.267 28.8314 33.757 30.4476 34.6751 31.8224C35.5932 33.1973 36.8981 34.2692 38.4251 34.9028C39.9521 35.5363 41.6326 35.7031 43.2543 35.382C44.8761 35.0609 46.3662 34.2664 47.5366 33.0988C48.707 31.9312 49.5051 30.4429 49.83 28.8219C50.1549 27.2009 49.9921 25.52 49.3622 23.9916C48.7322 22.4631 47.6634 21.1556 46.2907 20.2343C44.9181 19.3129 43.3031 18.8191 41.6499 18.8152C40.5502 18.8135 39.461 19.0284 38.4444 19.4479C37.4279 19.8673 36.504 20.4829 35.7255 21.2596C34.9469 22.0363 34.3291 22.9587 33.9073 23.9743C33.4855 24.9898 33.2679 26.0786 33.267 27.1782ZM45.8281 27.1782C45.8294 28.0065 45.5849 28.8165 45.1256 29.5057C44.6663 30.1949 44.0127 30.7323 43.2478 31.0498C42.4829 31.3674 41.6409 31.4508 40.8285 31.2896C40.0161 31.1283 39.2698 30.7296 38.6842 30.144C38.0985 29.5583 37.6998 28.812 37.5386 27.9996C37.3773 27.1872 37.4607 26.3453 37.7783 25.5803C38.0958 24.8154 38.6332 24.1619 39.3224 23.7025C40.0117 23.2432 40.8217 22.9987 41.6499 23C42.754 23.007 43.8107 23.4501 44.5896 24.2327C45.3685 25.0153 45.8066 26.0741 45.8083 27.1782H45.8281Z" fill="white"/>
<path d="M71.0891 64.7887H62.7261C62.172 64.7887 61.6406 65.0088 61.2489 65.4006C60.8571 65.7924 60.637 66.3237 60.637 66.8778V75.2474C60.6352 75.5229 60.688 75.796 60.7922 76.051C60.8964 76.306 61.05 76.5378 61.2442 76.7332C61.4383 76.9286 61.6692 77.0837 61.9235 77.1895C62.1779 77.2953 62.4506 77.3498 62.7261 77.3498H71.0891C71.6432 77.3498 72.1745 77.1297 72.5663 76.7379C72.9581 76.3461 73.1782 75.8147 73.1782 75.2607V66.9042C73.1817 66.6277 73.1303 66.3532 73.0268 66.0967C72.9234 65.8401 72.7701 65.6067 72.5758 65.4099C72.3814 65.2131 72.1499 65.0568 71.8947 64.9502C71.6395 64.8436 71.3657 64.7887 71.0891 64.7887ZM69 73.1517H64.7887V68.9735H68.9736L69 73.1517Z" fill="white"/>
<path d="M10.4521 85.7261H87.8019C88.3366 85.696 88.8394 85.4625 89.2072 85.0733C89.5751 84.6842 89.78 84.1691 89.78 83.6337C89.78 83.0982 89.5751 82.5831 89.2072 82.194C88.8394 81.8049 88.3366 81.5713 87.8019 81.5412H10.4521C8.79048 81.5395 7.19738 80.8786 6.02241 79.7037C4.84744 78.5287 4.18657 76.9356 4.18482 75.2739V10.4852C4.18657 8.82354 4.84744 7.23044 6.02241 6.05547C7.19738 4.8805 8.79048 4.21963 10.4521 4.21788H104.541C106.204 4.21962 107.797 4.88028 108.973 6.05506C110.149 7.22985 110.812 8.82293 110.815 10.4852V56.4521C110.845 56.9867 111.079 57.4896 111.468 57.8574C111.857 58.2252 112.372 58.4302 112.908 58.4302C113.443 58.4302 113.958 58.2252 114.347 57.8574C114.736 57.4896 114.97 56.9867 115 56.4521V10.4521C114.996 7.67999 113.893 5.02248 111.932 3.06289C109.972 1.1033 107.313 0.00174899 104.541 0L10.4521 0C7.6806 0.00175137 5.02307 1.10352 3.0633 3.0633C1.10352 5.02307 0.00175137 7.6806 0 10.4521V75.2739C0.00349875 78.0449 1.10583 80.7014 3.06523 82.6608C5.02462 84.6202 7.68114 85.7226 10.4521 85.7261Z" fill="white"/>
<path d="M73.1782 12.5611C73.1782 12.0071 72.9581 11.4757 72.5663 11.0839C72.1745 10.6921 71.6432 10.472 71.0891 10.472C70.535 10.472 70.0037 10.6921 69.6119 11.0839C69.2201 11.4757 69 12.0071 69 12.5611V48.0892H55.6258C54.956 45.7591 53.6995 43.6398 51.9764 41.9342C50.188 40.1396 47.9636 38.8409 45.5216 38.1656C43.0797 37.4903 40.5041 37.4616 38.0477 38.0824C35.5913 38.7031 33.3385 39.952 31.5105 41.7064C29.6826 43.4608 28.3423 45.6603 27.6212 48.0892H14.637V14.637H54.363C54.8976 14.607 55.4005 14.3734 55.7683 13.9843C56.1361 13.5952 56.3411 13.0801 56.3411 12.5446C56.3411 12.0092 56.1361 11.494 55.7683 11.1049C55.4005 10.7158 54.8976 10.4823 54.363 10.4522H12.5611C12.2836 10.4504 12.0086 10.5038 11.752 10.6091C11.4953 10.7145 11.2621 10.8698 11.0659 11.066C10.8697 11.2622 10.7145 11.4953 10.6091 11.752C10.5037 12.0087 10.4504 12.2837 10.4521 12.5611V50.1783C10.4521 50.4546 10.5068 50.7282 10.6129 50.9833C10.7191 51.2385 10.8746 51.4701 11.0706 51.6648C11.2666 51.8596 11.4992 52.0137 11.755 52.1183C12.0108 52.2228 12.2848 52.2757 12.5611 52.274H71.1023C71.3772 52.274 71.6494 52.2197 71.9033 52.1143C72.1572 52.0089 72.3878 51.8544 72.5819 51.6598C72.776 51.4651 72.9297 51.234 73.0343 50.9798C73.1389 50.7255 73.1923 50.4532 73.1914 50.1783L73.1782 12.5611ZM32.0903 48.0892C32.7645 46.5278 33.8114 45.1557 35.1392 44.093C36.4669 43.0303 38.0351 42.3095 39.7061 41.9937C41.3772 41.6779 43.1003 41.7767 44.7243 42.2816C46.3483 42.7864 47.8237 43.6818 49.0213 44.8894C49.9417 45.8064 50.6758 46.893 51.1831 48.0892H32.0903Z" fill="white"/>
<path d="M81.5412 16.7261C80.9877 16.7278 80.4574 16.9485 80.066 17.3399C79.6745 17.7313 79.4539 18.2617 79.4521 18.8152V46C79.4521 46.5541 79.6722 47.0854 80.064 47.4772C80.4558 47.869 80.9872 48.0891 81.5412 48.0891H102.472C102.747 48.09 103.019 48.0365 103.272 47.9319C103.526 47.8272 103.757 47.6733 103.951 47.4792C104.145 47.285 104.299 47.0544 104.404 46.8005C104.509 46.5466 104.562 46.2746 104.561 46V18.8152C104.561 18.2611 104.341 17.7297 103.949 17.338C103.557 16.9462 103.026 16.7261 102.472 16.7261H81.5412ZM100.363 43.9109H83.637V20.9109H100.363V43.9109Z" fill="white"/>
<path d="M71.0891 56.4521H62.7261C62.1915 56.4822 61.6886 56.7158 61.3208 57.1049C60.953 57.494 60.748 58.0091 60.748 58.5446C60.748 59.08 60.953 59.5952 61.3208 59.9843C61.6886 60.3734 62.1915 60.6069 62.7261 60.637H71.0891C71.6237 60.6069 72.1265 60.3734 72.4944 59.9843C72.8622 59.5952 73.0672 59.08 73.0672 58.5446C73.0672 58.0091 72.8622 57.494 72.4944 57.1049C72.1265 56.7158 71.6237 56.4822 71.0891 56.4521Z" fill="white"/>
<path d="M50.1782 64.7887H46C45.4654 64.8188 44.9626 65.0523 44.5947 65.4414C44.2269 65.8305 44.0219 66.3457 44.0219 66.8811C44.0219 67.4166 44.2269 67.9317 44.5947 68.3208C44.9626 68.7099 45.4654 68.9435 46 68.9735H50.1782C50.4629 68.9895 50.7478 68.9473 51.0156 68.8494C51.2834 68.7514 51.5284 68.5999 51.7356 68.404C51.9428 68.2082 52.1078 67.9721 52.2206 67.7102C52.3334 67.4484 52.3916 67.1662 52.3916 66.8811C52.3916 66.596 52.3334 66.3139 52.2206 66.052C52.1078 65.7902 51.9428 65.5541 51.7356 65.3582C51.5284 65.1623 51.2834 65.0108 51.0156 64.9129C50.7478 64.8149 50.4629 64.7727 50.1782 64.7887Z" fill="white"/>
<path d="M16.7261 64.7887H12.5611C12.2764 64.7727 11.9915 64.8149 11.7237 64.9129C11.4559 65.0108 11.2109 65.1623 11.0037 65.3582C10.7965 65.5541 10.6315 65.7902 10.5187 66.052C10.4059 66.3139 10.3477 66.596 10.3477 66.8811C10.3477 67.1662 10.4059 67.4484 10.5187 67.7102C10.6315 67.9721 10.7965 68.2082 11.0037 68.404C11.2109 68.5999 11.4559 68.7514 11.7237 68.8494C11.9915 68.9473 12.2764 68.9895 12.5611 68.9735H16.7261C17.2607 68.9435 17.7635 68.7099 18.1313 68.3208C18.4992 67.9317 18.7041 67.4166 18.7041 66.8811C18.7041 66.3457 18.4992 65.8305 18.1313 65.4414C17.7635 65.0523 17.2607 64.8188 16.7261 64.7887Z" fill="white"/>
<path d="M33.4521 56.4522H29.2739C28.9893 56.4362 28.7043 56.4784 28.4365 56.5763C28.1687 56.6742 27.9238 56.8258 27.7166 57.0216C27.5094 57.2175 27.3443 57.4536 27.2315 57.7155C27.1187 57.9773 27.0606 58.2594 27.0606 58.5446C27.0606 58.8297 27.1187 59.1118 27.2315 59.3737C27.3443 59.6355 27.5094 59.8716 27.7166 60.0675C27.9238 60.2634 28.1687 60.4149 28.4365 60.5128C28.7043 60.6107 28.9893 60.653 29.2739 60.637H33.4521C33.9867 60.6069 34.4896 60.3734 34.8574 59.9843C35.2252 59.5952 35.4302 59.08 35.4302 58.5446C35.4302 58.0091 35.2252 57.494 34.8574 57.1049C34.4896 56.7158 33.9867 56.4822 33.4521 56.4522Z" fill="white"/>
<path d="M16.7261 73.1783H12.5611C12.2701 73.1499 11.9764 73.1826 11.6988 73.2745C11.4212 73.3664 11.1659 73.5154 10.9494 73.7118C10.7328 73.9083 10.5598 74.1479 10.4413 74.4152C10.3229 74.6825 10.2617 74.9717 10.2617 75.2641C10.2617 75.5564 10.3229 75.8456 10.4413 76.1129C10.5598 76.3803 10.7328 76.6198 10.9494 76.8163C11.1659 77.0127 11.4212 77.1617 11.6988 77.2536C11.9764 77.3455 12.2701 77.3783 12.5611 77.3499H16.7261C17.2607 77.3198 17.7635 77.0863 18.1313 76.6971C18.4992 76.308 18.7041 75.7929 18.7041 75.2575C18.7041 74.722 18.4992 74.2069 18.1313 73.8178C17.7635 73.4287 17.2607 73.1951 16.7261 73.165V73.1783Z" fill="white"/>
<path d="M50.1782 73.1782H46C45.4654 73.2083 44.9626 73.4418 44.5947 73.8309C44.2269 74.2201 44.0219 74.7352 44.0219 75.2706C44.0219 75.8061 44.2269 76.3212 44.5947 76.7103C44.9626 77.0994 45.4654 77.333 46 77.3631H50.1782C50.4629 77.3791 50.7478 77.3368 51.0156 77.2389C51.2834 77.141 51.5284 76.9894 51.7356 76.7936C51.9428 76.5977 52.1078 76.3616 52.2206 76.0998C52.3334 75.8379 52.3916 75.5558 52.3916 75.2706C52.3916 74.9855 52.3334 74.7034 52.2206 74.4415C52.1078 74.1797 51.9428 73.9436 51.7356 73.7477C51.5284 73.5518 51.2834 73.4003 51.0156 73.3024C50.7478 73.2045 50.4629 73.1622 50.1782 73.1782Z" fill="white"/>
<path d="M50.1782 56.4522H46C45.4654 56.4822 44.9626 56.7158 44.5947 57.1049C44.2269 57.494 44.0219 58.0091 44.0219 58.5446C44.0219 59.08 44.2269 59.5952 44.5947 59.9843C44.9626 60.3734 45.4654 60.6069 46 60.637H50.1782C50.4629 60.653 50.7478 60.6107 51.0156 60.5128C51.2834 60.4149 51.5284 60.2634 51.7356 60.0675C51.9428 59.8716 52.1078 59.6355 52.2206 59.3737C52.3334 59.1118 52.3916 58.8297 52.3916 58.5446C52.3916 58.2594 52.3334 57.9773 52.2206 57.7155C52.1078 57.4536 51.9428 57.2175 51.7356 57.0216C51.5284 56.8258 51.2834 56.6742 51.0156 56.5763C50.7478 56.4784 50.4629 56.4362 50.1782 56.4522Z" fill="white"/>
<path d="M33.4521 64.7887H29.2739C28.9893 64.7727 28.7043 64.8149 28.4365 64.9129C28.1687 65.0108 27.9238 65.1623 27.7166 65.3582C27.5094 65.5541 27.3443 65.7902 27.2315 66.052C27.1187 66.3139 27.0606 66.596 27.0606 66.8811C27.0606 67.1662 27.1187 67.4484 27.2315 67.7102C27.3443 67.9721 27.5094 68.2082 27.7166 68.404C27.9238 68.5999 28.1687 68.7514 28.4365 68.8494C28.7043 68.9473 28.9893 68.9895 29.2739 68.9735H33.4521C33.9867 68.9435 34.4896 68.7099 34.8574 68.3208C35.2252 67.9317 35.4302 67.4166 35.4302 66.8811C35.4302 66.3457 35.2252 65.8305 34.8574 65.4414C34.4896 65.0523 33.9867 64.8188 33.4521 64.7887Z" fill="white"/>
<path d="M33.4521 73.1782H29.2739C28.9893 73.1622 28.7043 73.2045 28.4365 73.3024C28.1687 73.4003 27.9238 73.5518 27.7166 73.7477C27.5094 73.9436 27.3443 74.1797 27.2315 74.4415C27.1187 74.7034 27.0606 74.9855 27.0606 75.2706C27.0606 75.5558 27.1187 75.8379 27.2315 76.0998C27.3443 76.3616 27.5094 76.5977 27.7166 76.7936C27.9238 76.9894 28.1687 77.141 28.4365 77.2389C28.7043 77.3368 28.9893 77.3791 29.2739 77.3631H33.4521C33.9867 77.333 34.4896 77.0994 34.8574 76.7103C35.2252 76.3212 35.4302 75.8061 35.4302 75.2706C35.4302 74.7352 35.2252 74.2201 34.8574 73.8309C34.4896 73.4418 33.9867 73.2083 33.4521 73.1782Z" fill="white"/>
<path d="M16.7261 56.4522H12.5611C12.2764 56.4362 11.9915 56.4784 11.7237 56.5763C11.4559 56.6742 11.2109 56.8258 11.0037 57.0216C10.7965 57.2175 10.6315 57.4536 10.5187 57.7155C10.4059 57.9773 10.3477 58.2594 10.3477 58.5446C10.3477 58.8297 10.4059 59.1118 10.5187 59.3737C10.6315 59.6355 10.7965 59.8716 11.0037 60.0675C11.2109 60.2634 11.4559 60.4149 11.7237 60.5128C11.9915 60.6107 12.2764 60.653 12.5611 60.637H16.7261C17.2607 60.6069 17.7635 60.3734 18.1313 59.9843C18.4992 59.5952 18.7041 59.08 18.7041 58.5446C18.7041 58.0091 18.4992 57.494 18.1313 57.1049C17.7635 56.7158 17.2607 56.4822 16.7261 56.4522Z" fill="white"/>
</svg>
