<svg width="78" height="122" viewBox="0 0 78 122" fill="none" xmlns="http://www.w3.org/2000/svg">
<path d="M54.9952 115.902C54.9952 117.108 55.353 118.288 56.0234 119.291C56.6937 120.293 57.6465 121.075 58.7612 121.536C59.8758 121.998 61.1023 122.118 62.2854 121.882C63.4685 121.647 64.555 121.065 65.4076 120.212C66.2602 119.358 66.8405 118.271 67.075 117.088C67.3096 115.904 67.1879 114.678 66.7254 113.564C66.2628 112.45 65.4802 111.498 64.4766 110.828C63.4729 110.159 62.2933 109.803 61.0869 109.804C59.4707 109.806 57.9213 110.449 56.7791 111.592C55.6368 112.736 54.9952 114.286 54.9952 115.902ZM63.1239 115.902C63.1239 116.305 63.0044 116.699 62.7806 117.034C62.5568 117.369 62.2386 117.63 61.8664 117.784C61.4942 117.938 61.0846 117.978 60.6895 117.9C60.2944 117.821 59.9314 117.627 59.6465 117.342C59.3617 117.057 59.1677 116.694 59.0891 116.299C59.0105 115.904 59.0508 115.495 59.205 115.122C59.3591 114.75 59.6202 114.432 59.9552 114.208C60.2902 113.984 60.684 113.865 61.0869 113.865C61.6271 113.865 62.1453 114.08 62.5273 114.462C62.9093 114.844 63.1239 115.362 63.1239 115.902Z" fill="#2A363B"/>
<path d="M75.4614 103.564C75.728 103.565 75.992 103.513 76.2381 103.41C76.4841 103.307 76.7072 103.157 76.8944 102.967C77.0838 102.779 77.2341 102.555 77.3367 102.308C77.4393 102.062 77.4921 101.798 77.4921 101.531C77.4921 101.264 77.4393 100.999 77.3367 100.753C77.2341 100.506 77.0838 100.283 76.8944 100.094C72.6994 95.9068 67.0143 93.5548 61.0869 93.5548C55.1595 93.5548 49.4743 95.9068 45.2794 100.094C45.0908 100.284 44.9415 100.509 44.8399 100.757C44.7383 101.005 44.6865 101.27 44.6874 101.537C44.6883 101.805 44.7418 102.07 44.8451 102.317C44.9483 102.564 45.0992 102.788 45.2891 102.976C45.4789 103.165 45.7041 103.314 45.9517 103.416C46.1992 103.518 46.4644 103.569 46.732 103.568C46.9996 103.568 47.2645 103.514 47.5114 103.411C47.7583 103.307 47.9824 103.157 48.171 102.967C51.6032 99.5415 56.254 97.6179 61.103 97.6179C65.9519 97.6179 70.6027 99.5415 74.0349 102.967C74.4129 103.346 74.9257 103.561 75.4614 103.564Z" fill="#2A363B"/>
<path d="M69.7103 109.296C70.1116 109.295 70.5034 109.174 70.8367 108.951C71.1699 108.727 71.4297 108.41 71.5835 108.04C71.7373 107.669 71.7781 107.261 71.7009 106.867C71.6237 106.474 71.432 106.111 71.1497 105.826C68.4808 103.16 64.8626 101.662 61.0901 101.662C57.3176 101.662 53.6993 103.16 51.0305 105.826C50.8419 106.015 50.6923 106.239 50.5902 106.485C50.4882 106.732 50.4356 106.996 50.4356 107.262C50.4356 107.529 50.4882 107.793 50.5902 108.04C50.6923 108.286 50.8419 108.51 51.0305 108.699C51.2191 108.887 51.443 109.037 51.6894 109.139C51.9358 109.241 52.1999 109.293 52.4667 109.293C52.7334 109.293 52.9975 109.241 53.2439 109.139C53.4903 109.037 53.7142 108.887 53.9028 108.699C54.8462 107.755 55.9662 107.007 57.1989 106.496C58.4315 105.985 59.7527 105.723 61.0869 105.723C62.4211 105.723 63.7423 105.985 64.9749 106.496C66.2076 107.007 67.3275 107.755 68.2709 108.699C68.4597 108.888 68.684 109.038 68.931 109.141C69.178 109.244 69.4429 109.296 69.7103 109.296Z" fill="#2A363B"/>
<path d="M50.7799 89.479C50.7799 89.0774 50.6608 88.6848 50.4377 88.3509C50.2146 88.0169 49.8974 87.7567 49.5264 87.603C49.1554 87.4493 48.7471 87.4091 48.3532 87.4874C47.9593 87.5658 47.5975 87.7592 47.3135 88.0432C47.0296 88.3271 46.8362 88.689 46.7578 89.0828C46.6795 89.4767 46.7197 89.885 46.8734 90.256C47.027 90.6271 47.2873 90.9442 47.6212 91.1673C47.9552 91.3904 48.3477 91.5095 48.7494 91.5095C49.2879 91.5095 49.8044 91.2956 50.1852 90.9148C50.566 90.534 50.7799 90.0175 50.7799 89.479Z" fill="#FCFFFE"/>
<path d="M14.6797 68.9486C16.414 70.2841 17.8211 71.9974 18.7943 73.9581C19.7674 75.9188 20.2809 78.0755 20.2959 80.2644V101.675C20.2934 103.012 20.5544 104.336 21.064 105.572C21.5737 106.808 22.322 107.932 23.2661 108.878C24.2103 109.825 25.3317 110.576 26.5664 111.089C27.801 111.601 29.1246 111.866 30.4615 111.867V113.897C30.4615 115.514 31.104 117.065 32.2476 118.209C33.3912 119.353 34.9423 119.995 36.5596 119.995H40.6207C42.2375 119.993 43.7876 119.35 44.9308 118.207C46.0741 117.064 46.7171 115.514 46.7188 113.897V109.836C46.7188 109.297 46.5049 108.781 46.1241 108.4C45.7433 108.019 45.2268 107.805 44.6882 107.805H30.4615C28.8447 107.795 27.298 107.144 26.1608 105.995C25.0236 104.845 24.3887 103.292 24.3956 101.675V91.5096H40.6528C41.1914 91.5096 41.7079 91.2956 42.0887 90.9148C42.4695 90.534 42.6834 90.0175 42.6834 89.479C42.6834 88.9405 42.4695 88.424 42.0887 88.0432C41.7079 87.6624 41.1914 87.4485 40.6528 87.4485H24.3956V80.2644C24.3822 77.4598 23.7294 74.6952 22.4867 72.181C21.244 69.6667 19.4443 67.4689 17.2244 65.7549C11.5875 61.3096 7.47555 55.2185 5.4601 48.3284C3.44465 41.4382 3.62583 34.0914 5.97844 27.309C8.33105 20.5266 12.7382 14.6456 18.5874 10.4834C24.4365 6.32128 31.437 4.08478 38.6159 4.08478C45.7947 4.08478 52.7952 6.32128 58.6444 10.4834C64.4935 14.6456 68.9007 20.5266 71.2533 27.309C73.6059 34.0914 73.7871 41.4382 71.7716 48.3284C69.7562 55.2185 65.6442 61.3096 60.0074 65.7549C57.791 67.4699 55.9945 69.6673 54.7542 72.1802C53.5138 74.6932 52.8623 77.4556 52.849 80.258V81.3439C52.849 81.6106 52.9015 81.8746 53.0036 82.121C53.1056 82.3674 53.2552 82.5912 53.4437 82.7798C53.6323 82.9683 53.8561 83.1179 54.1025 83.2199C54.3489 83.322 54.6129 83.3745 54.8796 83.3745C55.1462 83.3745 55.4103 83.322 55.6566 83.2199C55.903 83.1179 56.1268 82.9683 56.3154 82.7798C56.5039 82.5912 56.6535 82.3674 56.7556 82.121C56.8576 81.8746 56.9101 81.6106 56.9101 81.3439V80.258C56.9251 78.07 57.4387 75.9142 58.4118 73.9546C59.385 71.9949 60.7921 70.2828 62.5263 68.9486C68.8297 63.9799 73.4284 57.1708 75.6831 49.4677C77.9377 41.7647 77.7364 33.5506 75.1069 25.9673C72.4775 18.384 67.5507 11.8084 61.0114 7.15454C54.4721 2.50073 46.6453 0 38.6191 0C30.5928 0 22.766 2.50073 16.2267 7.15454C9.68746 11.8084 4.76063 18.384 2.1312 25.9673C-0.498229 33.5506 -0.699598 41.7647 1.55509 49.4677C3.80977 57.1708 8.40848 63.9799 14.7119 68.9486H14.6797ZM34.5226 111.867H42.6513V113.897C42.6521 114.164 42.6002 114.429 42.4985 114.676C42.3969 114.923 42.2474 115.148 42.0588 115.337C41.8702 115.526 41.646 115.676 41.3993 115.779C41.1525 115.881 40.8879 115.934 40.6207 115.934H36.5596C36.0194 115.934 35.5013 115.719 35.1192 115.337C34.7372 114.955 34.5226 114.437 34.5226 113.897V111.867Z" fill="#FCFFFE"/>
<path d="M44.6882 46.8053C44.4208 46.8054 44.156 46.7526 43.9089 46.6501C43.6619 46.5475 43.4376 46.3972 43.2489 46.2077L32.4921 35.4509L21.7353 46.2077C21.5467 46.3963 21.3228 46.5459 21.0764 46.648C20.8299 46.75 20.5658 46.8026 20.2991 46.8026C20.0324 46.8026 19.7683 46.75 19.5219 46.648C19.2754 46.5459 19.0515 46.3963 18.8629 46.2077C18.6743 46.0191 18.5247 45.7952 18.4227 45.5488C18.3206 45.3023 18.2681 45.0382 18.2681 44.7715C18.2681 44.5048 18.3206 44.2407 18.4227 43.9943C18.5247 43.7478 18.6743 43.5239 18.8629 43.3353L31.072 31.1263C31.4547 30.7465 31.9721 30.5333 32.5113 30.5333C33.0506 30.5333 33.568 30.7465 33.9507 31.1263L44.6882 41.896L55.445 31.1392C55.6336 30.9506 55.8575 30.801 56.104 30.6989C56.3504 30.5968 56.6145 30.5443 56.8812 30.5443C57.1479 30.5443 57.412 30.5968 57.6585 30.6989C57.9049 30.801 58.1288 30.9506 58.3174 31.1392C58.506 31.3278 58.6556 31.5517 58.7576 31.7981C58.8597 32.0445 58.9123 32.3086 58.9123 32.5753C58.9123 32.8421 58.8597 33.1062 58.7576 33.3526C58.6556 33.599 58.506 33.8229 58.3174 34.0115L46.1083 46.2205C45.7306 46.595 45.2202 46.8052 44.6882 46.8053Z" fill="#FCFFFE"/>
</svg>
