<svg width="108" height="121" viewBox="0 0 108 121" fill="none" xmlns="http://www.w3.org/2000/svg">
<path d="M2.15915 121H6.48427C8.20463 121.002 9.85535 120.321 11.0738 119.106C12.2922 117.892 12.9786 116.243 12.9822 114.523H45.383C48.2475 114.517 50.9931 113.376 53.018 111.35C55.0429 109.324 56.1819 106.578 56.1855 103.713V99.3949C56.2021 99.1007 56.1584 98.8062 56.0572 98.5295C55.956 98.2527 55.7994 97.9995 55.597 97.7854C55.3945 97.5712 55.1505 97.4007 54.8799 97.2841C54.6092 97.1675 54.3177 97.1074 54.023 97.1074C53.7283 97.1074 53.4367 97.1675 53.1661 97.2841C52.8954 97.4007 52.6514 97.5712 52.449 97.7854C52.2466 97.9995 52.0899 98.2527 51.9887 98.5295C51.8875 98.8062 51.8439 99.1007 51.8604 99.3949V103.713C51.8586 105.431 51.1758 107.078 49.9616 108.294C48.7475 109.509 47.101 110.194 45.383 110.197H12.9822V101.554C12.9804 99.8349 12.2966 98.1867 11.081 96.971C9.86536 95.7554 8.21711 95.0716 6.49794 95.0698H2.15915C1.87561 95.0698 1.59484 95.1257 1.33289 95.2342C1.07093 95.3427 0.832904 95.5017 0.632409 95.7022C0.431914 95.9027 0.272873 96.1407 0.164366 96.4027C0.0558587 96.6647 1.08812e-05 96.9454 1.08812e-05 97.229V118.841C-0.000891496 119.125 0.0543404 119.406 0.162528 119.668C0.270715 119.931 0.429722 120.169 0.630397 120.37C0.831072 120.57 1.06945 120.729 1.33182 120.838C1.59419 120.946 1.87536 121.001 2.15915 121ZM4.32513 99.3949H6.48427C7.05636 99.3967 7.6045 99.6248 8.00902 100.029C8.41355 100.434 8.64161 100.982 8.64341 101.554V114.536C8.64161 115.108 8.41355 115.656 8.00902 116.061C7.6045 116.466 7.05636 116.694 6.48427 116.695H4.32513V99.3949Z" fill="white"/>
<path d="M63.1891 16.7531C63.6158 16.7513 64.0324 16.6236 64.3868 16.3859C64.7411 16.1482 65.0174 15.8112 65.1809 15.417C65.3444 15.0229 65.3878 14.5893 65.3058 14.1705C65.2237 13.7518 65.0198 13.3667 64.7196 13.0634C61.8818 10.2282 58.0344 8.63568 54.023 8.63568C50.0115 8.63568 46.1642 10.2282 43.3263 13.0634C42.9213 13.4693 42.6942 14.0195 42.6948 14.5929C42.6954 15.1664 42.9238 15.716 43.3298 16.1211C43.7357 16.5261 44.2859 16.7532 44.8593 16.7526C45.4327 16.752 45.9824 16.5236 46.3874 16.1176C47.3905 15.1144 48.5815 14.3186 49.8922 13.7756C51.2029 13.2327 52.6077 12.9532 54.0264 12.9532C55.4451 12.9532 56.8499 13.2327 58.1606 13.7756C59.4713 14.3186 60.6623 15.1144 61.6654 16.1176C61.8644 16.3195 62.1016 16.4797 62.3632 16.5888C62.6249 16.6979 62.9056 16.7538 63.1891 16.7531Z" fill="#2A363B"/>
<path d="M47.5421 23.7566C47.5408 25.0394 47.9199 26.2937 48.6316 27.3609C49.3433 28.4281 50.3555 29.2603 51.5402 29.7521C52.725 30.244 54.0289 30.3734 55.2872 30.1239C56.5455 29.8745 57.7015 29.2575 58.609 28.3509C59.5166 27.4443 60.1348 26.289 60.3856 25.031C60.6363 23.773 60.5083 22.4688 60.0177 21.2836C59.5271 20.0984 58.696 19.0852 57.6296 18.3724C56.5631 17.6596 55.3091 17.2792 54.0264 17.2792C52.3078 17.2792 50.6596 17.9614 49.4437 19.176C48.2279 20.3905 47.5439 22.0381 47.5421 23.7566ZM56.1855 23.7566C56.1869 24.1856 56.0608 24.6053 55.8233 24.9625C55.5859 25.3198 55.2477 25.5984 54.8516 25.7632C54.4555 25.928 54.0195 25.9715 53.5987 25.8881C53.1779 25.8048 52.7913 25.5983 52.488 25.295C52.1847 24.9917 51.9782 24.6051 51.8949 24.1843C51.8115 23.7635 51.855 23.3274 52.0198 22.9314C52.1846 22.5353 52.4632 22.1971 52.8205 21.9596C53.1777 21.7222 53.5974 21.5961 54.0264 21.5975C54.5985 21.5993 55.1466 21.8273 55.5511 22.2318C55.9557 22.6364 56.1837 23.1845 56.1855 23.7566Z" fill="#2A363B"/>
<path d="M69.3044 10.6378C69.7325 10.6393 70.1514 10.5135 70.5079 10.2763C70.8644 10.0392 71.1423 9.7014 71.3063 9.30593C71.4704 8.91047 71.5131 8.47515 71.4292 8.05532C71.3453 7.63549 71.1384 7.25009 70.8349 6.9481C66.3726 2.49862 60.328 0 54.0264 0C47.7248 0 41.6802 2.49862 37.2179 6.9481C36.812 7.35312 36.5836 7.90279 36.5829 8.47621C36.5823 9.04963 36.8095 9.59982 37.2145 10.0057C37.6195 10.4117 38.1692 10.6401 38.7426 10.6407C39.316 10.6414 39.8662 10.4142 40.2721 10.0092C43.9216 6.36704 48.867 4.32155 54.023 4.32155C59.1789 4.32155 64.1243 6.36704 67.7738 10.0092C68.1816 10.4117 68.7314 10.6375 69.3044 10.6378Z" fill="#2A363B"/>
<path d="M20.71 58.2483L29.2646 59.485C29.367 59.4918 29.4697 59.4918 29.5721 59.485C30.1199 59.4877 30.6483 59.2821 31.0502 58.9098C31.4521 58.5375 31.6975 58.0264 31.7366 57.4799C31.7757 56.9335 31.6056 56.3926 31.2608 55.9669C30.9159 55.5412 30.4222 55.2625 29.8795 55.1872L21.325 53.9778C21.0441 53.9374 20.7581 53.9528 20.4831 54.0229C20.2082 54.0931 19.9498 54.2167 19.7227 54.3868C19.4955 54.5568 19.3041 54.7699 19.1593 55.014C19.0145 55.258 18.9192 55.5281 18.8788 55.809C18.8385 56.0898 18.8538 56.3759 18.924 56.6508C18.9941 56.9257 19.1178 57.1841 19.2878 57.4113C19.4579 57.6384 19.671 57.8298 19.915 57.9746C20.159 58.1194 20.4292 58.2147 20.71 58.2551V58.2483Z" fill="white"/>
<path d="M21.9399 49.6936L30.5013 50.9303C30.6037 50.9371 30.7064 50.9371 30.8088 50.9303C31.3506 50.9218 31.8696 50.7106 32.2633 50.3382C32.657 49.9658 32.8968 49.4594 32.9354 48.9189C32.974 48.3784 32.8086 47.843 32.4718 47.4185C32.135 46.994 31.6514 46.7111 31.1163 46.6257L22.548 45.4163C21.9808 45.3338 21.4041 45.4801 20.9447 45.8228C20.4853 46.1656 20.1809 46.6768 20.0985 47.244C20.016 47.8112 20.1623 48.388 20.505 48.8473C20.8478 49.3067 21.359 49.6111 21.9262 49.6936H21.9399Z" fill="white"/>
<path d="M14.868 83.6045L36.2545 86.6929C36.3568 86.6997 36.4596 86.6997 36.5619 86.6929C36.8531 86.6891 37.1406 86.6266 37.4071 86.5092C37.6736 86.3918 37.9136 86.2219 38.113 86.0096L38.9466 85.1897C39.0832 86.695 39.5338 88.1549 40.2694 89.4754C41.0049 90.7958 42.009 91.9475 43.217 92.856C43.217 92.856 43.217 92.856 43.217 92.9107V101.554H28.0894C27.5167 101.554 26.9675 101.782 26.5626 102.186C26.1577 102.591 25.9302 103.141 25.9302 103.713C25.9302 104.286 26.1577 104.835 26.5626 105.24C26.9675 105.645 27.5167 105.872 28.0894 105.872H45.383C45.9556 105.872 46.5048 105.645 46.9097 105.24C47.3146 104.835 47.5421 104.286 47.5421 103.713V94.8306C47.7539 94.8785 47.9453 94.9536 48.1571 94.9878C50.6234 95.3398 53.1357 94.828 55.2677 93.539C57.3997 92.2501 59.0203 90.2634 59.8547 87.9159L79.3348 90.7242C79.6424 90.7704 79.953 90.7933 80.2641 90.7925C81.8222 90.7908 83.3276 90.2286 84.5056 89.2087C85.6835 88.1889 86.4553 86.7793 86.68 85.2375L88.8733 70.0483C91.3588 69.9052 93.7185 68.9074 95.5527 67.2239C97.3868 65.5404 98.5828 63.2747 98.9379 60.8105L99.2454 58.6719L101.391 58.9862C101.671 59.0248 101.94 59.1191 102.183 59.2634C102.426 59.4078 102.637 59.5992 102.805 59.8266C102.977 60.0537 103.101 60.3126 103.171 60.5883C103.242 60.8639 103.257 61.1508 103.215 61.4323L100.749 78.5141C100.666 79.082 100.361 79.5939 99.901 79.9372C99.4411 80.2806 98.8637 80.4273 98.2956 80.3453L94.0183 79.7235C93.452 79.6471 92.8782 79.7962 92.4207 80.1387C91.9632 80.4812 91.6585 80.9897 91.5722 81.5547C91.5257 81.8386 91.5365 82.129 91.6038 82.4087C91.6711 82.6885 91.7937 82.952 91.9643 83.1837C92.1349 83.4154 92.3501 83.6106 92.5972 83.758C92.8443 83.9054 93.1184 84.0019 93.4034 84.0418L97.6807 84.6636C97.9886 84.7064 98.299 84.7293 98.6099 84.7319C100.168 84.7271 101.673 84.163 102.851 83.1422C104.028 82.1215 104.8 80.7119 105.026 79.17L107.492 62.0882C107.739 60.3898 107.302 58.6629 106.277 57.286C105.253 55.9092 103.724 54.9947 102.026 54.743L99.8877 54.4356L100.81 48.0196C100.852 47.7393 100.837 47.4534 100.767 47.1788C100.696 46.9042 100.572 46.6465 100.4 46.4208C100.057 45.9614 99.5461 45.6567 98.9789 45.5735L21.9672 34.4088C19.1304 34.0008 16.2477 34.7361 13.9529 36.4531C11.6581 38.17 10.139 40.728 9.72981 43.5647L5.71217 71.3671C5.30417 74.2039 6.03948 77.0866 7.75642 79.3814C9.47336 81.6762 12.0314 83.1953 14.868 83.6045ZM48.7788 90.6832C47.4506 90.5001 46.2136 89.9042 45.2425 88.9797C44.2714 88.0552 43.6155 86.8489 43.3673 85.5313L55.4134 87.2737C54.7931 88.4558 53.8229 89.4177 52.6355 90.028C51.4481 90.6382 50.1012 90.867 48.7788 90.6832ZM9.98946 71.982L14.0071 44.1796C14.2571 42.4825 15.1702 40.9538 16.5459 39.9291C17.9217 38.9043 19.6478 38.4671 21.3455 38.7135L96.2048 49.4955L94.6606 60.1887C94.4089 61.8864 93.4945 63.4151 92.1176 64.4397C90.7408 65.4643 89.0139 65.9013 87.3154 65.6549L70.2336 63.1883C69.6664 63.1067 69.09 63.2539 68.6313 63.5973C68.1726 63.9407 67.869 64.4523 67.7875 65.0195C67.7059 65.5867 67.8531 66.163 68.1965 66.6218C68.5399 67.0805 69.0515 67.384 69.6187 67.4656L84.5892 69.6247L82.43 84.5952C82.3899 84.8768 82.2945 85.1477 82.1493 85.3923C82.0041 85.6369 81.8121 85.8505 81.5841 86.0206C81.3562 86.1908 81.0969 86.3142 80.8211 86.3839C80.5453 86.4535 80.2585 86.4679 79.9771 86.4264L42.9369 81.1037L57.0806 66.5773C57.3194 66.3341 57.612 66.1505 57.9349 66.0413C58.2577 65.9321 58.6017 65.9004 58.9391 65.9487L61.0368 66.2494C61.604 66.3309 62.1803 66.1838 62.6391 65.8404C63.0978 65.497 63.4013 64.9854 63.4829 64.4182C63.5644 63.851 63.4173 63.2746 63.0739 62.8159C62.7305 62.3571 62.2189 62.0536 61.6517 61.9721L59.5541 61.6714C58.543 61.5231 57.5111 61.6153 56.5424 61.9406C55.5736 62.2659 54.6952 62.8151 53.9786 63.5436L35.783 82.2584L15.483 79.3272C13.7819 79.0786 12.2486 78.166 11.219 76.7893C10.1894 75.4126 9.74723 73.684 9.98946 71.982Z" fill="white"/>
<path d="M17.2868 103.713C17.2855 104.142 17.4115 104.562 17.649 104.919C17.8865 105.276 18.2247 105.555 18.6207 105.72C19.0168 105.885 19.4529 105.928 19.8737 105.845C20.2945 105.761 20.681 105.555 20.9844 105.252C21.2877 104.948 21.4941 104.562 21.5775 104.141C21.6608 103.72 21.6174 103.284 21.4526 102.888C21.2878 102.492 21.0091 102.154 20.6519 101.916C20.2946 101.679 19.8749 101.553 19.446 101.554C18.8733 101.554 18.3241 101.782 17.9192 102.186C17.5143 102.591 17.2868 103.141 17.2868 103.713Z" fill="white"/>
</svg>
