<svg width="123" height="107" viewBox="0 0 123 107" fill="none" xmlns="http://www.w3.org/2000/svg">
<path d="M38.8436 69.6005C39.3671 69.6299 39.8595 69.8586 40.2197 70.2396C40.5799 70.6207 40.7806 71.1251 40.7806 71.6495C40.7806 72.1738 40.5799 72.6783 40.2197 73.0593C39.8595 73.4403 39.3671 73.669 38.8436 73.6985H34.7715C34.4928 73.7141 34.2137 73.6728 33.9515 73.5769C33.6893 73.481 33.4494 73.3326 33.2465 73.1408C33.0436 72.949 32.882 72.7178 32.7715 72.4614C32.6611 72.2049 32.6041 71.9287 32.6041 71.6495C32.6041 71.3703 32.6611 71.094 32.7715 70.8376C32.882 70.5811 33.0436 70.3499 33.2465 70.1581C33.4494 69.9663 33.6893 69.8179 33.9515 69.722C34.2137 69.6262 34.4928 69.5848 34.7715 69.6005H38.8436ZM49.0789 65.5089H30.1297C29.8054 65.5092 29.4857 65.4323 29.1969 65.2847C28.9081 65.137 28.6586 64.9229 28.4689 64.6598C28.2792 64.3967 28.1547 64.0923 28.1058 63.7717C28.0569 63.4511 28.0849 63.1235 28.1876 62.8158L31.7806 52.0367C32.4589 49.9974 33.7619 48.2234 35.5049 46.9662C37.2478 45.7089 39.3424 45.0322 41.4915 45.0319H49.0983C50.1847 45.0336 51.226 45.4659 51.9942 46.2341C52.7623 47.0022 53.1946 48.0436 53.1963 49.1299V61.4304C53.1895 62.5133 52.7549 63.5497 51.9873 64.3137C51.2197 65.0776 50.1813 65.5073 49.0983 65.5089H49.0789ZM32.9718 61.411H49.0983V49.1105H41.4979C40.209 49.1119 38.953 49.5183 37.9075 50.2722C36.862 51.0261 36.0798 52.0895 35.6714 53.3121L32.9718 61.411ZM6.14384 96.2212H12.3005C12.8241 96.1918 13.3164 95.9631 13.6766 95.5821C14.0369 95.201 14.2376 94.6966 14.2376 94.1722C14.2376 93.6479 14.0369 93.1435 13.6766 92.7624C13.3164 92.3814 12.8241 92.1527 12.3005 92.1233H6.14384C5.60127 92.1233 5.08092 91.9077 4.69727 91.5241C4.31361 91.1404 4.09808 90.6201 4.09808 90.0775V81.6096C4.09096 78.565 5.05966 75.5982 6.8621 73.1445C8.66454 70.6908 11.2058 68.8792 14.1132 67.9755L22.115 65.3859C22.423 65.2908 22.704 65.1238 22.9348 64.8987C23.1656 64.6735 23.3395 64.3968 23.4422 64.0912L27.8962 50.7225C28.8447 47.8672 30.6688 45.3834 33.1093 43.6239C35.5499 41.8644 38.4828 40.9186 41.4915 40.921H72.1002C75.1089 40.9186 78.0418 41.8644 80.4824 43.6239C82.9229 45.3834 84.747 47.8672 85.6954 50.7225L90.156 64.0912C90.2676 64.4297 90.4664 64.733 90.7323 64.9704C90.9982 65.2079 91.3219 65.3713 91.6709 65.4442L107.39 68.8106C110.596 69.5128 113.466 71.2889 115.525 73.8449C117.584 76.4008 118.709 79.5833 118.712 82.8655V90.0969C118.712 90.6395 118.497 91.1598 118.113 91.5435C117.73 91.9271 117.209 92.1427 116.667 92.1427H110.523C109.999 92.1721 109.507 92.4008 109.147 92.7818C108.787 93.1629 108.586 93.6673 108.586 94.1917C108.586 94.716 108.787 95.2205 109.147 95.6015C109.507 95.9825 109.999 96.2112 110.523 96.2407H116.667C118.296 96.239 119.857 95.5911 121.009 94.4393C122.161 93.2875 122.809 91.7258 122.81 90.0969V82.8655C122.793 78.6537 121.34 74.5737 118.692 71.2984C116.044 68.0231 112.359 65.7481 108.244 64.8486L93.6713 61.7217L89.5863 49.4601C88.3651 45.7904 86.0193 42.5984 82.8817 40.3371C79.7442 38.0757 75.9742 36.8598 72.1067 36.8618H41.4915C37.6234 36.8578 33.8525 38.073 30.7146 40.3346C27.5767 42.5963 25.2313 45.7893 24.0119 49.4601L19.888 61.8253L12.8767 64.0329C9.13494 65.2038 5.86627 67.5418 3.54921 70.7046C1.23216 73.8674 -0.0115764 77.6889 8.12078e-05 81.6096V90.0775C0.00179494 91.7064 0.649632 93.2681 1.80144 94.4199C2.95324 95.5717 4.51494 96.2195 6.14384 96.2212ZM92.0981 81.888C94.5309 81.888 96.9091 82.6094 98.9319 83.961C100.955 85.3126 102.531 87.2336 103.462 89.4812C104.393 91.7289 104.637 94.2021 104.162 96.5881C103.688 98.9742 102.516 101.166 100.796 102.886C99.0756 104.606 96.8839 105.778 94.4978 106.253C92.1118 106.727 89.6386 106.484 87.391 105.553C85.1433 104.622 83.2223 103.045 81.8707 101.022C80.5191 98.9994 79.7977 96.6212 79.7977 94.1884C79.7977 92.5731 80.1158 90.9736 80.734 89.4812C81.3522 87.9889 82.2582 86.6329 83.4004 85.4907C84.5426 84.3485 85.8986 83.4424 87.391 82.8243C88.8833 82.2061 90.4828 81.888 92.0981 81.888ZM83.9086 94.1884C83.9086 95.8082 84.3889 97.3915 85.2888 98.7383C86.1887 100.085 87.4677 101.135 88.9641 101.755C90.4606 102.374 92.1072 102.537 93.6958 102.221C95.2844 101.905 96.7437 101.125 97.889 99.9793C99.0343 98.834 99.8143 97.3747 100.13 95.7861C100.446 94.1975 100.284 92.5509 99.6643 91.0544C99.0444 89.558 97.9948 88.279 96.648 87.3791C95.3012 86.4792 93.7179 85.9989 92.0981 85.9989C89.9294 86.0023 87.8503 86.8645 86.3156 88.3968C84.7809 89.9291 83.9155 92.0068 83.9086 94.1755V94.1884ZM30.6735 81.888C33.5733 81.8941 36.3776 82.9245 38.5915 84.7973C40.8054 86.67 42.2865 89.2647 42.7733 92.1233H65.4838C66.0073 92.1527 66.4997 92.3814 66.8599 92.7624C67.2201 93.1435 67.4208 93.6479 67.4208 94.1722C67.4208 94.6966 67.2201 95.201 66.8599 95.5821C66.4997 95.9631 66.0073 96.1918 65.4838 96.2212H42.7733C42.3854 98.5362 41.3432 100.692 39.7698 102.434C38.1964 104.175 36.1574 105.431 33.8937 106.051C31.63 106.672 29.2359 106.632 26.9943 105.936C24.7526 105.239 22.7569 103.917 21.2428 102.123C19.7287 100.329 18.7594 98.1399 18.4493 95.8133C18.1393 93.4866 18.5014 91.1198 19.4929 88.9923C20.4845 86.8647 22.0641 85.0653 24.0452 83.8065C26.0264 82.5477 28.3263 81.882 30.6735 81.888ZM22.484 94.1884C22.484 95.8082 22.9643 97.3915 23.8642 98.7383C24.7641 100.085 26.0431 101.135 27.5395 101.755C29.036 102.374 30.6826 102.537 32.2712 102.221C33.8598 101.905 35.3191 101.125 36.4644 99.9793C37.6097 98.834 38.3897 97.3747 38.7057 95.7861C39.0217 94.1975 38.8595 92.5509 38.2397 91.0544C37.6198 89.558 36.5701 88.279 35.2234 87.3791C33.8766 86.4792 32.2933 85.9989 30.6735 85.9989C28.5048 86.0023 26.4257 86.8645 24.891 88.3968C23.3563 89.9291 22.4909 92.0068 22.484 94.1755V94.1884ZM85.4041 62.7964C85.5083 63.104 85.5374 63.4321 85.4891 63.7534C85.4408 64.0746 85.3165 64.3796 85.1265 64.6431C84.9365 64.9066 84.6864 65.1208 84.3968 65.268C84.1073 65.4153 83.7867 65.4912 83.4619 65.4895H61.3858C60.3001 65.4878 59.2594 65.0553 58.4923 64.287C57.7252 63.5186 57.2943 62.4773 57.2943 61.3915V49.0911C57.2943 48.0053 57.7252 46.964 58.4923 46.1956C59.2594 45.4273 60.3001 44.9948 61.3858 44.9931H72.1002C74.249 44.9909 76.3438 45.6659 78.0871 46.9222C79.8303 48.1786 81.1334 49.9523 81.8111 51.9914L85.4041 62.7964ZM80.6263 61.3915L77.9267 53.3121C77.5217 52.0874 76.7404 51.0218 75.6941 50.2673C74.6479 49.5129 73.3901 49.108 72.1002 49.1105H61.3858V61.411L80.6263 61.3915ZM67.5296 69.581H63.4445C62.921 69.6105 62.4286 69.8392 62.0684 70.2202C61.7082 70.6012 61.5075 71.1057 61.5075 71.63C61.5075 72.1544 61.7082 72.6588 62.0684 73.0399C62.4286 73.4209 62.921 73.6496 63.4445 73.679H67.5425C68.0661 73.6496 68.5584 73.4209 68.9186 73.0399C69.2789 72.6588 69.4796 72.1544 69.4796 71.63C69.4796 71.1057 69.2789 70.6012 68.9186 70.2202C68.5584 69.8392 68.0661 69.6105 67.5425 69.581H67.5296ZM75.7191 94.182C75.7204 93.7755 75.601 93.3778 75.3759 93.0394C75.1509 92.7009 74.8305 92.4368 74.4552 92.2807C74.08 92.1246 73.6668 92.0834 73.2681 92.1624C72.8694 92.2414 72.5031 92.4369 72.2157 92.7243C71.9283 93.0117 71.7327 93.378 71.6538 93.7767C71.5748 94.1754 71.616 94.5886 71.7721 94.9638C71.9282 95.3391 72.1923 95.6595 72.5308 95.8846C72.8692 96.1096 73.2669 96.229 73.6733 96.2277C73.9445 96.2303 74.2134 96.1791 74.4647 96.0771C74.7159 95.9751 74.9444 95.8244 75.1371 95.6335C75.3297 95.4427 75.4826 95.2156 75.5869 94.9654C75.6913 94.7151 75.745 94.4466 75.745 94.1755L75.7191 94.182Z" fill="white"/>
<path d="M61.3858 28.6529C60.1707 28.6529 58.9829 28.2925 57.9726 27.6175C56.9622 26.9424 56.1748 25.9829 55.7098 24.8602C55.2447 23.7376 55.1231 22.5023 55.3601 21.3105C55.5972 20.1188 56.1823 19.024 57.0416 18.1648C57.9008 17.3056 58.9955 16.7205 60.1873 16.4834C61.379 16.2464 62.6143 16.368 63.737 16.833C64.8596 17.298 65.8191 18.0855 66.4942 19.0958C67.1693 20.1062 67.5296 21.294 67.5296 22.5091C67.5279 24.138 66.88 25.6997 65.7282 26.8515C64.5764 28.0033 63.0147 28.6512 61.3858 28.6529ZM61.3858 20.4634C60.9799 20.4646 60.5836 20.5862 60.2468 20.8128C59.91 21.0394 59.648 21.3607 59.4938 21.7362C59.3397 22.1117 59.3004 22.5245 59.3808 22.9223C59.4612 23.3201 59.6578 23.6852 59.9458 23.9713C60.2337 24.2574 60.6 24.4517 60.9983 24.5296C61.3966 24.6076 61.8091 24.5656 62.1837 24.4091C62.5582 24.2526 62.8778 23.9886 63.1023 23.6504C63.3267 23.3122 63.4458 22.915 63.4445 22.5091C63.4437 22.2396 63.3898 21.9729 63.2859 21.7242C63.1819 21.4756 63.0301 21.2498 62.8389 21.0599C62.6477 20.8699 62.421 20.7194 62.1717 20.6171C61.9224 20.5147 61.6553 20.4625 61.3858 20.4634Z" fill="#2A363B"/>
<path d="M70.0739 15.8733C69.8044 15.8734 69.5376 15.8203 69.2887 15.717C69.0398 15.6136 68.8138 15.4622 68.6237 15.2713C66.7017 13.3563 64.099 12.281 61.3858 12.281C58.6726 12.281 56.07 13.3563 54.148 15.2713C53.7642 15.655 53.2438 15.8706 52.7011 15.8706C52.1584 15.8706 51.6379 15.655 51.2541 15.2713C50.8704 14.8875 50.6548 14.367 50.6548 13.8243C50.6548 13.2816 50.8704 12.7612 51.2541 12.3774C53.9436 9.69469 57.5872 8.18811 61.3858 8.18811C65.1845 8.18811 68.8281 9.69469 71.5175 12.3774C71.7084 12.567 71.8598 12.7924 71.9632 13.0407C72.0666 13.289 72.1198 13.5554 72.1198 13.8243C72.1198 14.0933 72.0666 14.3596 71.9632 14.608C71.8598 14.8563 71.7084 15.0817 71.5175 15.2713C71.329 15.4626 71.1042 15.6143 70.8563 15.7177C70.6084 15.8211 70.3424 15.874 70.0739 15.8733Z" fill="#2A363B"/>
<path d="M75.8615 10.0792C75.3208 10.0779 74.8022 9.864 74.4178 9.48356C70.9589 6.0323 66.2721 4.09405 61.3858 4.09405C56.4996 4.09405 51.8128 6.0323 48.3538 9.48356C47.9692 9.8673 47.4479 10.0826 46.9046 10.0819C46.3613 10.0813 45.8405 9.86493 45.4567 9.48032C45.073 9.09571 44.8577 8.57442 44.8584 8.03111C44.859 7.4878 45.0754 6.96699 45.46 6.58324C49.688 2.36741 55.4151 0 61.3858 0C67.3565 0 73.0837 2.36741 77.3117 6.58324C77.5993 6.86937 77.7952 7.23453 77.8748 7.63232C77.9543 8.0301 77.9138 8.44256 77.7584 8.81726C77.6029 9.19196 77.3396 9.51199 77.0019 9.73668C76.6641 9.96138 76.2672 10.0806 75.8615 10.0792Z" fill="#2A363B"/>
</svg>
