<svg width="47" height="49" viewBox="0 0 47 49" fill="none" xmlns="http://www.w3.org/2000/svg">
<g clip-path="url(#clip0_2_14)">
<path d="M15.0967 32.6043H40.6703C41.3734 32.6043 41.9839 32.1291 42.1438 31.4574L46.9466 11.288C47.0518 10.8467 46.9456 10.3825 46.6586 10.0275C46.3716 9.67243 45.9349 9.46546 45.4731 9.46546H11.6202L9.99369 2.3725C9.85701 1.77623 9.36798 1.31914 8.75427 1.21392L1.80845 0.022878C0.969245 -0.12114 0.169992 0.42979 0.0232965 1.25311C-0.123398 2.07644 0.437957 2.86047 1.27727 3.00439L7.20963 4.02162L13.1665 29.9991C11.2352 30.7546 9.8658 32.6063 9.8658 34.7676C9.8658 37.5976 12.2124 39.9001 15.0967 39.9001H45.1809C46.0166 39.9001 46.6942 39.2354 46.6942 38.4154C46.6942 37.5955 46.0166 36.9307 45.1809 36.9307H15.0967C13.8813 36.9307 12.8925 35.9603 12.8925 34.7676C12.8925 33.5749 13.8813 32.6043 15.0967 32.6043ZM26.3531 29.6349H23.2476L21.6274 22.5196H26.353V29.6349H26.3531ZM39.5032 12.4349H43.5654L41.871 19.5502H37.8832L39.5032 12.4349ZM41.1639 22.5197L39.4697 29.635H35.5867L37.207 22.5197H41.1639ZM29.3798 12.4349H36.4019L34.7818 19.5502H29.3796V12.4349H29.3798ZM29.3798 22.5197H34.1057L32.4855 29.635H29.3798V22.5197ZM26.3531 12.4349V19.5502H20.9514L19.3312 12.4349H26.3531ZM20.1462 29.6349H16.2626L14.6137 22.5196H18.526L20.1462 29.6349ZM16.2298 12.4349L17.85 19.5502H13.9328L12.3012 12.4349H16.2298Z" fill="white"/>
<path d="M22.1146 45.2461C22.1146 47.023 20.6475 48.4648 18.8354 48.4648C17.0234 48.4648 15.5538 47.023 15.5538 45.2461C15.5538 43.4684 17.0234 42.0278 18.8354 42.0278C20.6475 42.0278 22.1146 43.4684 22.1146 45.2461Z" fill="white"/>
<path d="M40.1466 45.246C40.1466 47.023 38.6787 48.4647 36.8666 48.4647C35.0545 48.4647 33.5851 47.023 33.5851 45.246C33.5851 43.4683 35.0546 42.0278 36.8666 42.0278C38.6787 42.0278 40.1466 43.4683 40.1466 45.246Z" fill="white"/>
</g>
<defs>
<clipPath id="clip0_2_14">
<rect width="47" height="49" fill="white"/>
</clipPath>
</defs>
</svg>
