<svg width="99" height="134" viewBox="0 0 99 134" fill="none" xmlns="http://www.w3.org/2000/svg">
<path d="M89.4946 119.867C89.9349 119.866 90.3649 119.734 90.7305 119.489C91.0962 119.243 91.3813 118.895 91.55 118.489C91.7187 118.082 91.7635 117.635 91.6789 117.202C91.5942 116.77 91.3837 116.373 91.074 116.06C89.6249 114.61 87.9041 113.459 86.0101 112.674C84.116 111.889 82.0859 111.485 80.0356 111.485C77.9854 111.485 75.9552 111.889 74.0612 112.674C72.1671 113.459 70.4464 114.61 68.9972 116.06C68.5793 116.478 68.3445 117.045 68.3445 117.636C68.3445 118.227 68.5793 118.794 68.9972 119.212C69.4152 119.63 69.9821 119.864 70.5731 119.864C71.1642 119.864 71.7311 119.63 72.149 119.212C74.2418 117.122 77.0783 115.948 80.0356 115.948C82.993 115.948 85.8294 117.122 87.9222 119.212C88.1275 119.42 88.3723 119.585 88.6423 119.698C88.9123 119.811 89.202 119.868 89.4946 119.867Z" fill="#2A363B"/>
<path d="M62.193 57.9806C65.7731 57.9913 69.2909 57.0444 72.3818 55.238C75.4728 53.4316 78.0244 50.8315 79.7723 47.7071C81.5201 44.5827 82.4007 41.0477 82.3226 37.4684C82.2445 33.8892 81.2106 30.396 79.3281 27.3508C77.4456 24.3056 74.7829 21.8193 71.6161 20.1494C68.4493 18.4796 64.8935 17.6871 61.3174 17.854C57.7412 18.0208 54.2747 19.1411 51.2771 21.0985C48.2796 23.056 45.86 25.7795 44.2693 28.9868H37.6695V15.5898C37.677 12.6375 38.8546 9.80858 40.9441 7.72296C43.0337 5.63735 45.8649 4.46517 48.8172 4.46331H75.6111C78.5671 4.46518 81.4014 5.64026 83.4916 7.73045C85.5818 9.82064 86.7569 12.655 86.7588 15.611V86.9673C86.7417 87.2709 86.7868 87.5749 86.8912 87.8605C86.9956 88.146 87.1572 88.4073 87.3661 88.6283C87.575 88.8493 87.8269 89.0253 88.1061 89.1456C88.3854 89.2659 88.6863 89.328 88.9904 89.328C89.2945 89.328 89.5954 89.2659 89.8747 89.1456C90.154 89.0253 90.4058 88.8493 90.6147 88.6283C90.8236 88.4073 90.9852 88.146 91.0896 87.8605C91.1941 87.5749 91.2391 87.2709 91.2221 86.9673V15.611C91.2202 13.5585 90.814 11.5264 90.0266 9.63097C89.2392 7.73549 88.0861 6.01373 86.6331 4.56402C85.1801 3.11432 83.4558 1.96508 81.5585 1.18198C79.6613 0.398871 77.6283 -0.00276517 75.5758 1.43283e-05H48.8172C44.6781 0.00374833 40.7095 1.64967 37.7827 4.57648C34.8559 7.5033 33.21 11.4718 33.2062 15.611V29.0079H8.67574C6.35261 29.0732 4.14655 30.042 2.52646 31.7083C0.906372 33.3745 0 35.6069 0 37.931C0 40.255 0.906372 42.4874 2.52646 44.1537C4.14655 45.82 6.35261 46.7887 8.67574 46.8541H44.2693C45.9216 50.196 48.4758 53.0091 51.6432 54.9754C54.8106 56.9416 58.4649 57.9826 62.193 57.9806ZM62.193 22.3024C64.8794 22.2939 67.5226 22.9788 69.8669 24.2908C72.2111 25.6029 74.1771 27.4977 75.5746 29.792C76.9722 32.0863 77.7541 34.7024 77.8446 37.3874C77.9351 40.0723 77.3312 42.7351 76.0913 45.1183C74.8514 47.5015 73.0175 49.5244 70.7669 50.9914C68.5163 52.4583 65.9253 53.3197 63.2444 53.4921C60.5634 53.6645 57.8834 53.1421 55.4635 51.9756C53.0435 50.809 50.9656 49.0377 49.4306 46.8329H62.193C64.5161 46.7676 66.7222 45.7988 68.3423 44.1326C69.9624 42.4663 70.8687 40.2339 70.8687 37.9098C70.8687 35.5858 69.9624 33.3534 68.3423 31.6871C66.7222 30.0208 64.5161 29.0521 62.193 28.9868H49.4306C50.8587 26.9234 52.7659 25.2373 54.9888 24.0731C57.2116 22.9089 59.6837 22.3013 62.193 22.3024ZM4.21949 37.9134C4.21949 36.7308 4.68876 35.5967 5.52427 34.7598C6.35977 33.923 7.49322 33.4519 8.67574 33.4501H62.193C62.7936 33.4262 63.3928 33.5238 63.9547 33.7372C64.5166 33.9506 65.0297 34.2752 65.4631 34.6917C65.8964 35.1082 66.2412 35.6079 66.4767 36.1609C66.7123 36.7139 66.8337 37.3088 66.8337 37.9098C66.8337 38.5109 66.7123 39.1058 66.4767 39.6588C66.2412 40.2118 65.8964 40.7115 65.4631 41.128C65.0297 41.5444 64.5166 41.8691 63.9547 42.0825C63.3928 42.2958 62.7936 42.3935 62.193 42.3696H8.67574C7.49444 42.3677 6.36206 41.8976 5.52676 41.0623C4.69145 40.227 4.22136 39.0947 4.21949 37.9134Z" fill="white"/>
<path d="M62.193 69.1C60.5054 69.0963 58.8516 69.5725 57.4244 70.4731C55.9973 71.3738 54.8556 72.6617 54.1327 74.1866C53.4098 75.7115 53.1354 77.4105 53.3416 79.0855C53.5478 80.7604 54.226 82.3422 55.2971 83.6463L53.344 95.5202C53.2895 95.8401 53.3056 96.168 53.3912 96.4811C53.4767 96.7941 53.6296 97.0847 53.8391 97.3325C54.0486 97.5803 54.3097 97.7794 54.6042 97.9157C54.8987 98.0521 55.2194 98.1225 55.5439 98.122H68.8562C69.1807 98.1225 69.5014 98.0521 69.7959 97.9157C70.0904 97.7794 70.3515 97.5803 70.561 97.3325C70.7705 97.0847 70.9234 96.7941 71.0089 96.4811C71.0945 96.168 71.1106 95.8401 71.0561 95.5202L69.0677 83.6745C70.1434 82.3714 70.826 80.7892 71.0361 79.1126C71.2462 77.4361 70.975 75.7344 70.2541 74.2062C69.5333 72.678 68.3926 71.3865 66.9652 70.4823C65.5378 69.5781 63.8827 69.0987 62.193 69.1ZM64.5128 83.3008L66.2544 93.6305H58.1387L59.8803 83.3008C59.9398 82.9336 59.9065 82.5573 59.7833 82.2063C59.6602 81.8553 59.4511 81.5407 59.1752 81.2912C58.718 80.8776 58.3525 80.3727 58.1024 79.8092C57.8522 79.2457 57.7228 78.6361 57.7227 78.0195C57.7685 76.8674 58.2584 75.7777 59.0897 74.9788C59.9211 74.1798 61.0294 73.7336 62.1824 73.7336C63.3355 73.7336 64.4438 74.1798 65.2751 74.9788C66.1065 75.7777 66.5964 76.8674 66.6422 78.0195C66.642 78.6361 66.5127 79.2457 66.2625 79.8092C66.0123 80.3727 65.6469 80.8776 65.1897 81.2912C64.9133 81.5456 64.7061 81.8661 64.5877 82.2225C64.4693 82.579 64.4435 82.9598 64.5128 83.329V83.3008Z" fill="white"/>
<path d="M91.1868 95.894C91.1868 95.4516 91.0555 95.0192 90.8096 94.6515C90.5637 94.2837 90.2142 93.9972 89.8054 93.8283C89.3965 93.6593 88.9467 93.6155 88.513 93.7023C88.0792 93.7891 87.681 94.0027 87.3686 94.316C87.0563 94.6293 86.844 95.0282 86.7586 95.4623C86.6731 95.8963 86.7184 96.3459 86.8886 96.7542C87.0589 97.1625 87.3465 97.5111 87.715 97.7559C88.0835 98.0006 88.5163 98.1305 88.9587 98.1291C89.5503 98.1273 90.117 97.891 90.5346 97.472C90.9523 97.053 91.1868 96.4856 91.1868 95.894Z" fill="white"/>
<path d="M95.8052 113.571C96.2455 113.569 96.6755 113.437 97.0412 113.192C97.4069 112.947 97.692 112.599 97.8607 112.192C98.0294 111.785 98.0742 111.338 97.9895 110.906C97.9048 110.474 97.6944 110.076 97.3847 109.763C92.7797 105.172 86.5421 102.593 80.0391 102.593C73.5362 102.593 67.2985 105.172 62.6936 109.763C62.2757 110.181 62.0409 110.748 62.0409 111.339C62.0409 111.93 62.2757 112.497 62.6936 112.915C63.1116 113.333 63.6784 113.568 64.2695 113.568C64.8606 113.568 65.4275 113.333 65.8454 112.915C69.6115 109.157 74.7149 107.046 80.0356 107.046C85.3563 107.046 90.4597 109.157 94.2258 112.915C94.4329 113.123 94.679 113.288 94.9501 113.401C95.2211 113.513 95.5117 113.571 95.8052 113.571Z" fill="#2A363B"/>
<path d="M73.3477 127.109C73.3477 128.432 73.7402 129.726 74.4754 130.826C75.2107 131.927 76.2557 132.784 77.4784 133.291C78.7011 133.797 80.0466 133.93 81.3446 133.672C82.6426 133.413 83.8349 132.776 84.7707 131.84C85.7065 130.905 86.3438 129.712 86.602 128.414C86.8602 127.116 86.7277 125.771 86.2212 124.548C85.7147 123.325 84.8571 122.28 83.7567 121.545C82.6563 120.81 81.3626 120.417 80.0391 120.417C78.265 120.419 76.5641 121.125 75.3096 122.379C74.0552 123.634 73.3496 125.335 73.3477 127.109ZM82.2673 127.109C82.2687 127.551 82.1386 127.985 81.8935 128.353C81.6484 128.722 81.2994 129.009 80.8907 129.18C80.482 129.35 80.032 129.394 79.5978 129.308C79.1635 129.222 78.7646 129.009 78.4516 128.696C78.1386 128.383 77.9255 127.984 77.8395 127.55C77.7535 127.116 77.7984 126.666 77.9684 126.257C78.1385 125.848 78.426 125.499 78.7947 125.254C79.1633 125.009 79.5965 124.879 80.0391 124.881C80.6276 124.884 81.1907 125.121 81.6056 125.538C82.0204 125.956 82.2532 126.52 82.2532 127.109H82.2673Z" fill="#2A363B"/>
<path d="M35.4344 51.2892C34.8434 51.2892 34.2767 51.5239 33.8588 51.9418C33.441 52.3596 33.2062 52.9264 33.2062 53.5173V111.498C33.21 115.637 34.8559 119.606 37.7827 122.532C40.7095 125.459 44.6781 127.105 48.8172 127.109H62.2141C62.5067 127.109 62.7965 127.051 63.0668 126.939C63.3371 126.827 63.5828 126.663 63.7897 126.456C63.9966 126.249 64.1607 126.004 64.2727 125.733C64.3846 125.463 64.4423 125.173 64.4423 124.881C64.4423 124.588 64.3846 124.298 64.2727 124.028C64.1607 123.758 63.9966 123.512 63.7897 123.305C63.5828 123.098 63.3371 122.934 63.0668 122.822C62.7965 122.71 62.5067 122.653 62.2141 122.653H48.8172C45.8606 122.649 43.0262 121.472 40.9362 119.381C38.8463 117.29 37.6714 114.454 37.6695 111.498V53.5173C37.6677 52.9257 37.4314 52.359 37.0124 51.9414C36.5934 51.5237 36.0259 51.2892 35.4344 51.2892Z" fill="white"/>
</svg>
