<svg width="84" height="106" viewBox="0 0 84 106" fill="none" xmlns="http://www.w3.org/2000/svg">
<path d="M72.4336 44.1685C72.4336 44.519 72.3296 44.8616 72.1348 45.1529C71.94 45.4442 71.6631 45.6712 71.3392 45.805C71.0153 45.9389 70.659 45.9736 70.3154 45.9049C69.9717 45.8361 69.6562 45.6669 69.4088 45.4187C69.1614 45.1705 68.9932 44.8544 68.9255 44.5106C68.8578 44.1667 68.8936 43.8105 69.0285 43.487C69.1634 43.1635 69.3912 42.8874 69.6832 42.6935C69.9751 42.4996 70.318 42.3967 70.6685 42.3978C71.1371 42.3993 71.5861 42.5865 71.917 42.9184C72.2479 43.2503 72.4336 43.6999 72.4336 44.1685Z" fill="white"/>
<path d="M24.7348 49.4641C24.4943 49.4505 24.2535 49.4862 24.0272 49.569C23.801 49.6517 23.594 49.7797 23.4189 49.9452C23.2439 50.1107 23.1044 50.3102 23.0091 50.5315C22.9138 50.7527 22.8646 50.9911 22.8646 51.232C22.8646 51.4729 22.9138 51.7113 23.0091 51.9326C23.1044 52.1538 23.2439 52.3533 23.4189 52.5188C23.594 52.6843 23.801 52.8123 24.0272 52.8951C24.2535 52.9778 24.4943 53.0135 24.7348 53H72.4337C72.8975 53.0014 73.3423 53.1848 73.6724 53.5107C74.0025 53.8366 74.1915 54.279 74.1988 54.7428V75.9696C74.1853 76.2102 74.221 76.4509 74.3037 76.6772C74.3865 76.9034 74.5145 77.1104 74.68 77.2855C74.8455 77.4606 75.045 77.6 75.2663 77.6953C75.4875 77.7906 75.7259 77.8398 75.9668 77.8398C76.2077 77.8398 76.4461 77.7906 76.6673 77.6953C76.8886 77.6 77.0881 77.4606 77.2536 77.2855C77.4191 77.1104 77.5471 76.9034 77.6299 76.6772C77.7126 76.4509 77.7483 76.2102 77.7348 75.9696V54.7428C77.7333 53.3373 77.1743 51.9898 76.1805 50.996C75.1866 50.0022 73.8391 49.4432 72.4337 49.4417L24.7348 49.4641Z" fill="white"/>
<path d="M81.3936 89.9737C81.6253 89.9743 81.8549 89.9287 82.0687 89.8395C82.2826 89.7503 82.4766 89.6193 82.6393 89.4542C82.8039 89.2907 82.9346 89.0962 83.0238 88.8819C83.113 88.6677 83.1589 88.4379 83.1589 88.2058C83.1589 87.9737 83.113 87.7439 83.0238 87.5296C82.9346 87.3154 82.8039 87.1208 82.6393 86.9573C78.9911 83.3197 74.0495 81.277 68.8977 81.277C63.7459 81.277 58.8043 83.3197 55.1561 86.9573C54.825 87.2892 54.6393 87.739 54.6398 88.2077C54.6403 88.6765 54.8271 89.1259 55.1589 89.457C55.4908 89.7882 55.9406 89.9739 56.4094 89.9734C56.8782 89.9728 57.3275 89.7861 57.6587 89.4542C60.6423 86.4767 64.6853 84.8044 68.9005 84.8044C73.1157 84.8044 77.1587 86.4767 80.1423 89.4542C80.3064 89.619 80.5014 89.7497 80.7161 89.8388C80.9308 89.928 81.1611 89.9738 81.3936 89.9737Z" fill="#2A363B"/>
<path d="M63.6022 100.699C63.6022 101.748 63.9132 102.773 64.496 103.645C65.0787 104.516 65.907 105.196 66.8759 105.597C67.8449 105.998 68.9111 106.103 69.9395 105.898C70.968 105.693 71.9126 105.187 72.6537 104.445C73.3949 103.703 73.8993 102.758 74.1032 101.73C74.3071 100.701 74.2014 99.6349 73.7993 98.6664C73.3972 97.6978 72.7169 96.8703 71.8444 96.2885C70.9719 95.7066 69.9464 95.3967 68.8977 95.3978C67.4932 95.4007 66.1471 95.9604 65.1545 96.954C64.1619 97.9477 63.6036 99.2944 63.6022 100.699ZM70.6685 100.699C70.6696 101.049 70.5667 101.392 70.3728 101.684C70.1789 101.976 69.9027 102.204 69.5792 102.339C69.2558 102.474 68.8995 102.51 68.5557 102.442C68.2118 102.374 67.8958 102.206 67.6476 101.959C67.3994 101.711 67.2302 101.396 67.1614 101.052C67.0926 100.708 67.1273 100.352 67.2612 100.028C67.3951 99.7042 67.622 99.4273 67.9133 99.2325C68.2047 99.0377 68.5472 98.9337 68.8977 98.9337C69.13 98.933 69.3601 98.9781 69.5749 99.0665C69.7897 99.1549 69.985 99.2848 70.1495 99.4487C70.314 99.6127 70.4445 99.8076 70.5336 100.022C70.6226 100.237 70.6685 100.467 70.6685 100.699Z" fill="#2A363B"/>
<path d="M76.3941 94.9621C76.7429 94.9606 77.0836 94.8562 77.3733 94.6619C77.663 94.4676 77.8888 94.192 78.0225 93.8698C78.1561 93.5476 78.1917 93.1931 78.1246 92.8507C78.0575 92.5084 77.8908 92.1935 77.6454 91.9456C76.4973 90.7966 75.1341 89.8851 73.6336 89.2632C72.1331 88.6413 70.5248 88.3212 68.9005 88.3212C67.2762 88.3212 65.6679 88.6413 64.1674 89.2632C62.6669 89.8851 61.3036 90.7966 60.1556 91.9456C59.8245 92.2767 59.6385 92.7258 59.6385 93.1941C59.6385 93.6624 59.8245 94.1115 60.1556 94.4426C60.4867 94.7737 60.9358 94.9597 61.4041 94.9597C61.8723 94.9597 62.3214 94.7737 62.6525 94.4426C64.3105 92.7872 66.5576 91.8574 68.9005 91.8574C71.2434 91.8574 73.4905 92.7872 75.1484 94.4426C75.3111 94.6076 75.505 94.7386 75.7189 94.8278C75.9328 94.917 76.1624 94.9626 76.3941 94.9621Z" fill="#2A363B"/>
<path d="M38.8674 0C29.9682 0.0103487 21.4365 3.55011 15.1439 9.84276C8.85122 16.1354 5.31146 24.6671 5.30111 33.5663V49.464C3.89948 49.4655 2.55535 50.0214 1.56216 51.0104C0.568962 51.9994 0.00737625 53.3412 0 54.7428L0 91.845C0.00147981 94.1868 0.93241 96.4323 2.58831 98.0882C4.24421 99.7441 6.48967 100.675 8.83147 100.676H54.7428C55.1535 100.606 55.5263 100.393 55.795 100.075C56.0637 99.7564 56.2111 99.3531 56.2111 98.9364C56.2111 98.5197 56.0637 98.1165 55.795 97.798C55.5263 97.4796 55.1535 97.2665 54.7428 97.1964H8.83147C7.42695 97.1934 6.08088 96.6338 5.08825 95.6401C4.09563 94.6465 3.53741 93.2998 3.53594 91.8953V54.7428C3.53594 54.2746 3.72191 53.8257 4.05295 53.4946C4.38398 53.1636 4.83296 52.9776 5.30111 52.9776H17.6685C18.1362 52.9761 18.5843 52.7897 18.9151 52.459C19.2458 52.1283 19.4322 51.6801 19.4337 51.2124V33.5663C19.4337 28.4121 21.4812 23.4691 25.1257 19.8246C28.7702 16.18 33.7132 14.1326 38.8674 14.1326C44.0215 14.1326 48.9646 16.18 52.6091 19.8246C56.2536 23.4691 58.3011 28.4121 58.3011 33.5663V44.1797C58.3011 44.6478 58.487 45.0968 58.8181 45.4278C59.1491 45.7589 59.5981 45.9448 60.0663 45.9448C60.5344 45.9448 60.9834 45.7589 61.3144 45.4278C61.6455 45.0968 61.8314 44.6478 61.8314 44.1797V33.5663C61.7374 27.5371 59.2763 21.7867 54.9794 17.5563C50.6825 13.3259 44.8945 10.9548 38.8646 10.9548C32.8347 10.9548 27.0466 13.3259 22.7497 17.5563C18.4529 21.7867 15.9918 27.5371 15.8978 33.5663V49.464H8.83147V33.5663C8.93913 25.6719 12.1507 18.1374 17.7713 12.5929C23.3919 7.04848 30.9695 3.93995 38.8646 3.93995C46.7597 3.93995 54.3373 7.04848 59.9579 12.5929C65.5785 18.1374 68.79 25.6719 68.8977 33.5663V37.1022C68.9231 37.5539 69.1205 37.9788 69.4492 38.2896C69.778 38.6004 70.2133 38.7736 70.6657 38.7736C71.1181 38.7736 71.5534 38.6004 71.8821 38.2896C72.2109 37.9788 72.4083 37.5539 72.4337 37.1022V33.5663C72.4233 24.6671 68.8835 16.1354 62.5909 9.84276C56.2982 3.55011 47.7665 0.0103487 38.8674 0Z" fill="white"/>
</svg>
