<svg width="175" height="24" viewBox="0 0 175 24" fill="none" xmlns="http://www.w3.org/2000/svg">
<path d="M4.888 24C4.12 24 3.416 23.8187 2.776 23.456C2.15733 23.072 1.656 22.5707 1.272 21.952C0.909333 21.312 0.728 20.608 0.728 19.84V5.12C0.728 4.352 0.909333 3.65867 1.272 3.04C1.656 2.4 2.15733 1.89867 2.776 1.536C3.416 1.152 4.12 0.959999 4.888 0.959999H19.608C20.3547 0.959999 21.048 1.152 21.688 1.536C22.328 1.89867 22.8293 2.4 23.192 3.04C23.576 3.65867 23.768 4.352 23.768 5.12V19.84C23.768 20.608 23.576 21.312 23.192 21.952C22.8293 22.5707 22.328 23.072 21.688 23.456C21.048 23.8187 20.3547 24 19.608 24H4.888ZM4.984 20.544H19.512C19.7253 20.544 19.9067 20.4693 20.056 20.32C20.2053 20.1493 20.28 19.9573 20.28 19.744V5.216C20.28 5.00267 20.2053 4.82133 20.056 4.672C19.9067 4.50133 19.7253 4.416 19.512 4.416H4.984C4.77067 4.416 4.57867 4.50133 4.408 4.672C4.25867 4.82133 4.184 5.00267 4.184 5.216V19.744C4.184 19.9573 4.25867 20.1493 4.408 20.32C4.57867 20.4693 4.77067 20.544 4.984 20.544ZM75.3865 24V0.959999H78.8425V10.752H95.4825V0.959999H98.9705V24H95.4825V14.208H78.8425V24H75.3865Z" fill="#99B898"/>
<path d="M31.356 24C30.588 24 29.884 23.808 29.244 23.424C28.6253 23.04 28.124 22.5387 27.74 21.92C27.3773 21.3013 27.196 20.608 27.196 19.84V5.44H30.652V19.744C30.652 19.9573 30.7267 20.1493 30.876 20.32C31.0467 20.4693 31.2387 20.544 31.452 20.544H41.82C42.0333 20.544 42.2147 20.4693 42.364 20.32C42.5347 20.1493 42.62 19.9573 42.62 19.744V5.44H46.076V19.84C46.076 20.608 45.884 21.3013 45.5 21.92C45.1373 22.5387 44.636 23.04 43.996 23.424C43.3773 23.808 42.684 24 41.916 24H31.356ZM160.011 24C159.243 24 158.549 23.808 157.931 23.424C157.312 23.04 156.811 22.5387 156.427 21.92C156.043 21.3013 155.851 20.608 155.851 19.84V9.6C155.851 8.832 156.043 8.13867 156.427 7.52C156.811 6.90133 157.312 6.4 157.931 6.016C158.549 5.632 159.243 5.44 160.011 5.44H170.571C171.339 5.44 172.032 5.632 172.651 6.016C173.291 6.37867 173.792 6.88 174.155 7.52C174.539 8.16 174.731 8.85333 174.731 9.6V16.448H159.307V19.744C159.307 19.9573 159.381 20.1493 159.531 20.32C159.701 20.4693 159.893 20.544 160.107 20.544H174.731V24H160.011ZM159.307 13.216H171.243V9.696C171.243 9.48267 171.168 9.30133 171.019 9.152C170.869 8.98133 170.688 8.896 170.475 8.896H160.107C159.893 8.896 159.701 8.98133 159.531 9.152C159.381 9.30133 159.307 9.48267 159.307 9.696V13.216Z" fill="#FF847C"/>
<path d="M49.414 24V9.6C49.414 8.832 49.606 8.13867 49.99 7.52C50.374 6.90133 50.8753 6.4 51.494 6.016C52.134 5.632 52.8273 5.44 53.574 5.44H63.942V8.896H53.67C53.4567 8.896 53.2647 8.98133 53.094 9.152C52.9447 9.30133 52.87 9.48267 52.87 9.696V24H49.414ZM124.666 24V5.44H148.378C149.167 5.44 149.871 5.632 150.49 6.016C151.108 6.4 151.599 6.90133 151.962 7.52C152.346 8.13867 152.538 8.832 152.538 9.6V24H149.114V9.696C149.114 9.48267 149.028 9.30133 148.858 9.152C148.708 8.98133 148.527 8.896 148.314 8.896H141.178C140.943 8.896 140.751 8.98133 140.602 9.152C140.452 9.30133 140.378 9.48267 140.378 9.696V24H136.89V9.696C136.89 9.48267 136.804 9.30133 136.634 9.152C136.484 8.98133 136.303 8.896 136.09 8.896H128.922C128.708 8.896 128.527 8.98133 128.378 9.152C128.228 9.30133 128.154 9.48267 128.154 9.696V24H124.666Z" fill="#E84A5F"/>
<path d="M106.573 24C105.805 24 105.112 23.808 104.493 23.424C103.875 23.04 103.373 22.5387 102.989 21.92C102.605 21.3013 102.413 20.608 102.413 19.84V9.6C102.413 8.832 102.605 8.13867 102.989 7.52C103.373 6.90133 103.875 6.4 104.493 6.016C105.112 5.632 105.805 5.44 106.573 5.44H117.133C117.901 5.44 118.595 5.632 119.213 6.016C119.853 6.37867 120.355 6.88 120.717 7.52C121.101 8.16 121.293 8.85333 121.293 9.6V19.84C121.293 20.608 121.101 21.3013 120.717 21.92C120.355 22.5387 119.853 23.04 119.213 23.424C118.595 23.808 117.901 24 117.133 24H106.573ZM106.669 20.544H117.037C117.251 20.544 117.432 20.4693 117.581 20.32C117.731 20.1493 117.805 19.9573 117.805 19.744V9.696C117.805 9.48267 117.731 9.30133 117.581 9.152C117.432 8.98133 117.251 8.896 117.037 8.896H106.669C106.456 8.896 106.264 8.98133 106.093 9.152C105.944 9.30133 105.869 9.48267 105.869 9.696V19.744C105.869 19.9573 105.944 20.1493 106.093 20.32C106.264 20.4693 106.456 20.544 106.669 20.544Z" fill="#FECEA8"/>
</svg>
