<svg width="48" height="48" viewBox="0 0 48 48" fill="none" xmlns="http://www.w3.org/2000/svg">
<path d="M47.395 44.5619L33.6231 30.7802C36.3381 27.5241 37.9711 23.363 37.9711 18.8183C37.9711 8.45002 29.462 0.0196533 18.9954 0.0196533C8.52874 0.0196533 0 8.45986 0 18.8281C0 29.1964 8.50907 37.6268 18.9757 37.6268C23.4221 37.6268 27.5143 36.102 30.7605 33.5542L44.5816 47.3753C45.3883 48.182 46.5884 48.182 47.395 47.3753C48.2017 46.5687 48.2017 45.3686 47.395 44.5619ZM4.0332 18.8281C4.0332 10.683 10.7421 4.06269 18.9757 4.06269C27.2093 4.06269 33.9182 10.683 33.9182 18.8281C33.9182 26.9732 27.2093 33.5936 18.9757 33.5936C10.7421 33.5936 4.0332 26.9634 4.0332 18.8281Z" fill="white"/>
</svg>
