<svg width="69" height="124" viewBox="0 0 69 124" fill="none" xmlns="http://www.w3.org/2000/svg">
<g clip-path="url(#clip0_3_1012)">
<path d="M35.5775 75.4407V11.7135C35.5489 8.6258 34.3165 5.67436 32.1484 3.50116C29.9803 1.32795 27.0519 0.108765 24 0.108765C20.9481 0.108765 18.0196 1.32795 15.8516 3.50116C13.6835 5.67436 12.4511 8.6258 12.4225 11.7135V75.4407C8.44396 77.6518 5.16801 80.9609 2.97598 84.9826C0.783956 89.0043 -0.233974 93.5732 0.0406959 98.1576C0.731511 110.229 10.232 120.018 22.1407 120.928C22.7674 120.975 23.4002 121 24.0229 121C29.3463 120.995 34.517 119.199 38.7215 115.896C42.9261 112.592 45.9259 107.968 47.249 102.751C48.5722 97.5335 48.1437 92.0193 46.0308 87.0755C43.918 82.1317 40.2407 78.0388 35.5775 75.4407ZM37.4567 111.405C33.3738 115.236 28.0467 117.111 22.4571 116.685C12.6402 115.935 4.80824 107.864 4.23951 97.9115C4.00035 93.9389 4.93803 89.9843 6.93259 86.5538C8.92715 83.1233 11.8879 80.3729 15.436 78.6545C15.7921 78.4797 16.0926 78.2073 16.3032 77.8683C16.5138 77.5292 16.6261 77.1372 16.6274 76.7367V11.7135C16.6502 9.75033 17.437 7.87534 18.8171 6.49521C20.1973 5.11509 22.0595 4.3411 24 4.3411C25.9405 4.3411 27.8027 5.11509 29.1829 6.49521C30.563 7.87534 31.3498 9.75033 31.3726 11.7135V76.7367C31.3736 77.1372 31.4858 77.5294 31.6965 77.8685C31.9071 78.2076 32.2077 78.4799 32.564 78.6545C39.3867 81.9713 43.7951 89.0607 43.7951 96.7154C43.791 99.4729 43.2262 102.2 42.1358 104.727C41.0454 107.254 39.4526 109.527 37.4567 111.405Z" fill="white"/>
<path d="M27.1127 87.7173V47.7169C27.1127 46.8814 26.7847 46.0802 26.2009 45.4895C25.6171 44.8988 24.8252 44.5669 23.9995 44.5669C23.1738 44.5669 22.3819 44.8988 21.7981 45.4895C21.2142 46.0802 20.8862 46.8814 20.8862 47.7169V87.7173C18.7838 88.4613 17.0095 89.9342 15.8776 91.8751C14.7457 93.8161 14.3294 96.0997 14.7023 98.3214C15.0752 100.543 16.2134 102.56 17.915 104.014C19.6167 105.468 21.7722 106.265 23.9995 106.265C26.2268 106.265 28.3822 105.468 30.0839 104.014C31.7856 102.56 32.9238 100.543 33.2967 98.3214C33.6696 96.0997 33.2533 93.8161 32.1214 91.8751C30.9895 89.9342 29.2152 88.4613 27.1127 87.7173Z" fill="white"/>
</g>
<path d="M46.3079 117.347C46.3079 118.553 46.6657 119.733 47.336 120.736C48.0064 121.739 48.9591 122.52 50.0738 122.982C51.1884 123.443 52.4149 123.563 53.598 123.328C54.7811 123.092 55.8676 122.51 56.7202 121.657C57.5728 120.803 58.1531 119.716 58.3876 118.533C58.6222 117.35 58.5005 116.123 58.038 115.009C57.5755 113.895 56.7929 112.943 55.7892 112.274C54.7855 111.604 53.6059 111.248 52.3995 111.249C50.7833 111.251 49.2339 111.894 48.0917 113.037C46.9495 114.181 46.3079 115.731 46.3079 117.347ZM54.4365 117.347C54.4365 117.75 54.317 118.144 54.0932 118.479C53.8694 118.814 53.5512 119.075 53.179 119.229C52.8068 119.383 52.3973 119.424 52.0021 119.345C51.607 119.266 51.244 119.072 50.9592 118.787C50.6743 118.503 50.4803 118.14 50.4017 117.745C50.3231 117.349 50.3634 116.94 50.5176 116.568C50.6718 116.195 50.9329 115.877 51.2678 115.653C51.6028 115.43 51.9966 115.31 52.3995 115.31C52.9398 115.31 53.4579 115.525 53.8399 115.907C54.2219 116.289 54.4365 116.807 54.4365 117.347Z" fill="#2A363B"/>
<path d="M66.7741 105.01C67.0406 105.01 67.3047 104.958 67.5507 104.855C67.7968 104.752 68.0199 104.602 68.207 104.412C68.3964 104.224 68.5468 104 68.6494 103.754C68.752 103.507 68.8048 103.243 68.8048 102.976C68.8048 102.709 68.752 102.444 68.6494 102.198C68.5468 101.951 68.3964 101.728 68.207 101.54C64.0121 97.352 58.3269 95 52.3995 95C46.4722 95 40.787 97.352 36.5921 101.54C36.4035 101.729 36.2541 101.955 36.1525 102.202C36.0509 102.45 35.9991 102.715 36 102.983C36.0009 103.25 36.0545 103.515 36.1577 103.762C36.261 104.009 36.4118 104.233 36.6017 104.422C36.7916 104.61 37.0167 104.76 37.2643 104.861C37.5119 104.963 37.7771 105.015 38.0447 105.014C38.3123 105.013 38.5771 104.959 38.824 104.856C39.0709 104.753 39.2951 104.602 39.4837 104.412C42.9159 100.987 47.5667 99.0631 52.4156 99.0631C57.2645 99.0631 61.9154 100.987 65.3475 104.412C65.7256 104.792 66.2383 105.006 66.7741 105.01Z" fill="#2A363B"/>
<path d="M61.023 110.741C61.4243 110.74 61.8161 110.62 62.1494 110.396C62.4826 110.173 62.7424 109.856 62.8962 109.485C63.0499 109.114 63.0908 108.706 63.0136 108.313C62.9364 107.919 62.7447 107.557 62.4624 107.271C59.7935 104.605 56.1753 103.107 52.4028 103.107C48.6302 103.107 45.012 104.605 42.3432 107.271C42.1546 107.46 42.005 107.684 41.9029 107.93C41.8008 108.177 41.7483 108.441 41.7483 108.708C41.7483 108.974 41.8008 109.238 41.9029 109.485C42.005 109.731 42.1546 109.955 42.3432 110.144C42.5318 110.332 42.7557 110.482 43.0021 110.584C43.2485 110.686 43.5126 110.739 43.7793 110.739C44.0461 110.739 44.3102 110.686 44.5566 110.584C44.803 110.482 45.0269 110.332 45.2155 110.144C46.1589 109.2 47.2789 108.452 48.5115 107.941C49.7442 107.431 51.0653 107.168 52.3996 107.168C53.7338 107.168 55.0549 107.431 56.2876 107.941C57.5202 108.452 58.6402 109.2 59.5836 110.144C59.7723 110.333 59.9967 110.484 60.2437 110.586C60.4907 110.689 60.7555 110.741 61.023 110.741Z" fill="#2A363B"/>
<defs>
<clipPath id="clip0_3_1012">
<rect width="48" height="121" fill="white"/>
</clipPath>
</defs>
</svg>
