<svg width="121" height="85" viewBox="0 0 121 85" fill="none" xmlns="http://www.w3.org/2000/svg">
<path d="M113.293 65.9834C113.69 65.9805 114.077 65.8606 114.407 65.6385C114.736 65.4165 114.993 65.1022 115.144 64.7351C115.296 64.368 115.336 63.9643 115.259 63.5746C115.182 63.1849 114.992 62.8264 114.713 62.5441C112.068 59.9014 108.481 58.4169 104.742 58.4169C101.003 58.4169 97.4168 59.9014 94.7715 62.5441C94.394 62.9225 94.1822 63.4354 94.1828 63.9699C94.1834 64.5044 94.3963 65.0168 94.7747 65.3943C95.1531 65.7718 95.6659 65.9836 96.2004 65.983C96.7349 65.9824 97.2473 65.7695 97.6249 65.3911C98.5599 64.4559 99.67 63.7141 100.892 63.208C102.114 62.7019 103.423 62.4414 104.745 62.4414C106.068 62.4414 107.377 62.7019 108.599 63.208C109.821 63.7141 110.931 64.4559 111.866 65.3911C112.053 65.5789 112.275 65.7279 112.52 65.8296C112.765 65.9312 113.028 65.9835 113.293 65.9834Z" fill="#2A363B"/>
<path d="M112.802 42.3032C112.404 42.3032 112.015 42.4213 111.684 42.6424C111.353 42.8636 111.095 43.1779 110.943 43.5457C110.791 43.9134 110.751 44.3181 110.828 44.7085C110.906 45.0989 111.098 45.4575 111.379 45.739C111.661 46.0205 112.019 46.2121 112.41 46.2898C112.8 46.3675 113.205 46.3276 113.573 46.1753C113.94 46.0229 114.255 45.765 114.476 45.434C114.697 45.103 114.815 44.7139 114.815 44.3159C114.816 44.0513 114.764 43.7892 114.663 43.5447C114.563 43.3001 114.414 43.0779 114.227 42.8908C114.04 42.7038 113.818 42.5556 113.574 42.4547C113.329 42.3539 113.067 42.3024 112.802 42.3032Z" fill="#FCFFFE"/>
<path d="M110.822 72.518C110.823 71.3223 110.469 70.1531 109.806 69.1583C109.143 68.1635 108.199 67.3878 107.095 66.9293C105.99 66.4709 104.775 66.3503 103.602 66.5828C102.429 66.8153 101.352 67.3904 100.506 68.2355C99.6597 69.0805 99.0834 70.1575 98.8497 71.3301C98.6159 72.5028 98.7353 73.7184 99.1925 74.8232C99.6498 75.928 100.425 76.8724 101.419 77.5368C102.413 78.2012 103.582 78.5559 104.777 78.5559C106.379 78.5542 107.914 77.9177 109.047 76.7859C110.18 75.6542 110.818 74.1194 110.822 72.518ZM102.765 72.518C102.765 72.12 102.883 71.7308 103.104 71.3999C103.325 71.0689 103.639 70.8109 104.007 70.6586C104.375 70.5063 104.78 70.4664 105.17 70.5441C105.56 70.6217 105.919 70.8134 106.2 71.0949C106.482 71.3763 106.674 71.735 106.751 72.1254C106.829 72.5158 106.789 72.9205 106.637 73.2882C106.484 73.656 106.226 73.9703 105.895 74.1914C105.564 74.4126 105.175 74.5306 104.777 74.5306C104.51 74.5349 104.245 74.4859 103.997 74.3867C103.749 74.2874 103.524 74.1398 103.334 73.9525C103.143 73.7652 102.992 73.5419 102.889 73.2956C102.786 73.0494 102.733 72.785 102.733 72.518H102.765Z" fill="#2A363B"/>
<path d="M10.0695 72.5181H50.3601V76.8299L25.8775 80.594C25.3496 80.6785 24.8769 80.9692 24.5634 81.4022C24.2498 81.8352 24.1211 82.3749 24.2056 82.9028C24.29 83.4307 24.5807 83.9034 25.0137 84.2169C25.4467 84.5305 25.9865 84.6591 26.5144 84.5747L52.5511 80.5749H62.2893L88.326 84.5747C88.4277 84.5842 88.5301 84.5842 88.6317 84.5747C89.1443 84.5825 89.6405 84.3945 90.0191 84.049C90.3977 83.7035 90.6303 83.2265 90.6693 82.7155C90.7083 82.2044 90.5508 81.6976 90.229 81.2987C89.9072 80.8997 89.4452 80.6386 88.9375 80.5686L64.4548 76.8045V72.4926H88.6572C89.1723 72.4636 89.6567 72.2386 90.011 71.8638C90.3654 71.4889 90.5629 70.9926 90.5629 70.4768C90.5629 69.961 90.3654 69.4647 90.011 69.0898C89.6567 68.715 89.1723 68.49 88.6572 68.461H10.0695C8.46806 68.4576 6.9333 67.8195 5.80152 66.6866C4.66975 65.5536 4.03328 64.0182 4.0316 62.4168V10.0695C4.03329 8.46868 4.66996 6.93391 5.80191 5.80195C6.93387 4.67 8.46864 4.03333 10.0695 4.03164H104.745C105.541 4.02829 106.33 4.1819 107.066 4.48367C107.802 4.78545 108.471 5.22946 109.036 5.79029C109.6 6.35113 110.048 7.01777 110.355 7.75206C110.661 8.48634 110.82 9.27385 110.822 10.0695V36.2591C110.822 36.7928 111.034 37.3048 111.411 37.6822C111.788 38.0596 112.3 38.2717 112.834 38.2717C113.368 38.2717 113.88 38.0596 114.257 37.6822C114.635 37.3048 114.847 36.7928 114.847 36.2591V10.0695C114.846 8.74472 114.584 7.4331 114.076 6.20971C113.567 4.98633 112.823 3.87519 111.884 2.93991C110.946 2.00462 109.833 1.26354 108.608 0.759079C107.383 0.254619 106.07 -0.0033177 104.745 3.22156e-05H10.0695C7.39939 0.00171947 4.83916 1.06315 2.95114 2.95118C1.06311 4.8392 0.00167867 7.39943 -8.5807e-06 10.0695V62.4168C-0.00251984 63.7413 0.255989 65.0534 0.760747 66.278C1.2655 67.5026 2.00662 68.6157 2.94174 69.5538C3.87686 70.4919 4.98766 71.2365 6.21067 71.7451C7.43367 72.2538 8.74491 72.5164 10.0695 72.5181ZM54.3853 72.5181H60.4296V76.5433H54.3853V72.5181Z" fill="#FCFFFE"/>
<path d="M89.0776 56.8501C88.7001 57.2277 88.488 57.7397 88.488 58.2736C88.488 58.8075 88.7001 59.3196 89.0776 59.6971C89.4551 60.0746 89.9672 60.2867 90.5011 60.2867C91.035 60.2867 91.547 60.0746 91.9246 59.6971C95.3275 56.3018 99.9383 54.3949 104.745 54.3949C109.553 54.3949 114.163 56.3018 117.566 59.6971C117.752 59.8844 117.973 60.0328 118.217 60.1334C118.461 60.234 118.723 60.2849 118.987 60.2831C119.384 60.2832 119.773 60.1655 120.104 59.9447C120.435 59.724 120.693 59.4101 120.846 59.0428C120.999 58.6755 121.039 58.2712 120.962 57.8809C120.885 57.4907 120.694 57.132 120.413 56.8501C116.255 52.6995 110.62 50.3683 104.745 50.3683C98.8704 50.3683 93.2355 52.6995 89.0776 56.8501Z" fill="#2A363B"/>
</svg>
