<svg width="107" height="105" viewBox="0 0 107 105" fill="none" xmlns="http://www.w3.org/2000/svg">
<path d="M4.04067 36.3405H6.05781V42.3983C6.05781 42.9333 6.27033 43.4464 6.64862 43.8247C7.02691 44.2029 7.53998 44.4155 8.07496 44.4155H24.2568C24.7918 44.4155 25.3048 44.2029 25.6831 43.8247C26.0614 43.4464 26.2739 42.9333 26.2739 42.3983V36.3405H50.5307C51.0469 36.3115 51.5324 36.086 51.8876 35.7103C52.2428 35.3346 52.4406 34.8372 52.4406 34.3202C52.4406 33.8032 52.2428 33.3058 51.8876 32.9301C51.5324 32.5544 51.0469 32.3289 50.5307 32.2998H4.04067V20.1714H64.472V98.9422C64.472 99.2071 64.5242 99.4694 64.6255 99.7141C64.7269 99.9588 64.8755 100.181 65.0628 100.369C65.2501 100.556 65.4725 100.704 65.7172 100.806C65.962 100.907 66.2243 100.959 66.4892 100.959C66.754 100.959 67.0163 100.907 67.2611 100.806C67.5058 100.704 67.7282 100.556 67.9155 100.369C68.1028 100.181 68.2514 99.9588 68.3527 99.7141C68.4541 99.4694 68.5063 99.2071 68.5063 98.9422V10.0921C68.5097 8.4871 69.1492 6.94889 70.2847 5.81457C71.4202 4.68026 72.9591 4.04236 74.5641 4.04067H90.714C92.3195 4.04067 93.8594 4.67803 94.9953 5.81271C96.1312 6.94739 96.7701 8.48658 96.7718 10.0921V70.6575C96.7564 70.9324 96.7972 71.2075 96.8917 71.466C96.9863 71.7246 97.1326 71.9611 97.3217 72.1612C97.5108 72.3613 97.7388 72.5206 97.9916 72.6295C98.2445 72.7384 98.5169 72.7946 98.7922 72.7946C99.0675 72.7946 99.3399 72.7384 99.5927 72.6295C99.8456 72.5206 100.074 72.3613 100.263 72.1612C100.452 71.9611 100.598 71.7246 100.693 71.466C100.787 71.2075 100.828 70.9324 100.812 70.6575V10.0921C100.809 7.41323 99.7421 4.84533 97.8461 2.95288C95.9501 1.06042 93.3801 -0.00169239 90.7013 2.02423e-06H74.5513C71.8775 0.00507203 69.3148 1.07038 67.4253 2.96228C65.5358 4.85419 64.4737 7.41824 64.472 10.0921V16.1499H4.04067C2.96954 16.1516 1.94276 16.5779 1.18535 17.3353C0.427943 18.0927 0.00168816 19.1195 0 20.1906L0 32.319C0.00673581 33.3868 0.435217 34.4087 1.19208 35.1619C1.94894 35.9152 2.97284 36.3388 4.04067 36.3405ZM10.0921 36.3405H22.2205V40.3748H10.0921V36.3405Z" fill="white"/>
<path d="M84.6498 98.9422C84.6498 100.141 85.0053 101.312 85.6712 102.308C86.3371 103.305 87.2836 104.081 88.3909 104.54C89.4982 104.998 90.7165 105.117 91.8918 104.883C93.0671 104.649 94.1465 104.071 94.9934 103.223C95.8404 102.376 96.4168 101.296 96.6498 100.12C96.8829 98.9446 96.762 97.7264 96.3025 96.6196C95.843 95.5128 95.0656 94.5671 94.0685 93.9022C93.0715 93.2374 91.8996 92.8831 90.7013 92.8844C89.0962 92.8878 87.558 93.5273 86.4237 94.6628C85.2894 95.7983 84.6515 97.3372 84.6498 98.9422ZM92.7248 98.9422C92.726 99.3427 92.6084 99.7346 92.3869 100.068C92.1653 100.402 91.8497 100.662 91.4801 100.816C91.1104 100.97 90.7034 101.011 90.3104 100.934C89.9175 100.857 89.5563 100.664 89.2727 100.382C88.989 100.099 88.7957 99.7384 88.7171 99.3457C88.6385 98.953 88.6782 98.5458 88.8312 98.1757C88.9841 97.8056 89.2435 97.4892 89.5764 97.2665C89.9093 97.0439 90.3008 96.9251 90.7013 96.9251C91.2368 96.9251 91.7506 97.1374 92.1299 97.5155C92.5092 97.8936 92.7231 98.4067 92.7248 98.9422Z" fill="#2A363B"/>
<path d="M106.404 83.2199C102.235 79.063 96.5885 76.7288 90.7013 76.7288C84.8141 76.7288 79.1671 79.063 74.9982 83.2199C74.8108 83.4077 74.6623 83.6305 74.5611 83.8757C74.4598 84.1209 74.4079 84.3836 74.4082 84.6488C74.4085 84.9141 74.461 85.1767 74.5628 85.4217C74.6646 85.6666 74.8136 85.8891 75.0014 86.0765C75.1892 86.2638 75.412 86.4124 75.6572 86.5136C75.9023 86.6148 76.1651 86.6668 76.4303 86.6665C76.6956 86.6662 76.9582 86.6136 77.2031 86.5119C77.4481 86.4101 77.6706 86.261 77.8579 86.0733C81.2674 82.6707 85.8876 80.7597 90.7045 80.7597C95.5213 80.7597 100.141 82.6707 103.551 86.0733C103.738 86.2615 103.961 86.4109 104.207 86.5127C104.452 86.6146 104.715 86.667 104.981 86.6669C105.246 86.6676 105.508 86.6154 105.752 86.5135C105.997 86.4116 106.218 86.2619 106.404 86.0733C106.593 85.8864 106.742 85.6641 106.844 85.4193C106.946 85.1744 106.998 84.9118 106.998 84.6466C106.998 84.3814 106.946 84.1188 106.844 83.8739C106.742 83.6291 106.593 83.4068 106.404 83.2199Z" fill="#2A363B"/>
<path d="M99.2677 92.3801C99.6663 92.3785 100.056 92.2591 100.387 92.0371C100.718 91.815 100.976 91.5001 101.129 91.1319C101.281 90.7637 101.322 90.3586 101.245 89.9674C101.169 89.5762 100.978 89.2164 100.698 88.9331C99.3857 87.62 97.8279 86.5784 96.1132 85.8677C94.3985 85.1571 92.5606 84.7913 90.7044 84.7913C88.8483 84.7913 87.0104 85.1571 85.2957 85.8677C83.581 86.5784 82.0232 87.62 80.7113 88.9331C80.5239 89.1204 80.3753 89.3429 80.2739 89.5876C80.1725 89.8324 80.1203 90.0948 80.1203 90.3598C80.1203 90.6247 80.1725 90.8871 80.2739 91.1319C80.3753 91.3767 80.5239 91.5991 80.7113 91.7864C80.8986 91.9738 81.1211 92.1224 81.3658 92.2238C81.6106 92.3252 81.873 92.3774 82.138 92.3774C82.4029 92.3774 82.6653 92.3252 82.9101 92.2238C83.1549 92.1224 83.3773 91.9738 83.5646 91.7864C85.4592 89.8947 88.0271 88.8322 90.7044 88.8322C93.3818 88.8322 95.9496 89.8947 97.8442 91.7864C98.0306 91.9745 98.2523 92.1238 98.4966 92.2257C98.7409 92.3276 99.003 92.38 99.2677 92.3801Z" fill="#2A363B"/>
<path d="M60.5654 34.3234C60.5666 33.9226 60.4489 33.5305 60.227 33.1968C60.0052 32.863 59.6892 32.6027 59.3192 32.4487C58.9492 32.2948 58.5418 32.2542 58.1487 32.332C57.7555 32.4099 57.3944 32.6028 57.111 32.8861C56.8276 33.1695 56.6348 33.5307 56.5569 33.9238C56.479 34.3169 56.5196 34.7243 56.6736 35.0943C56.8275 35.4643 57.0879 35.7803 57.4216 36.0021C57.7554 36.224 58.1475 36.3418 58.5482 36.3405C59.0827 36.3388 59.5948 36.1258 59.9727 35.7478C60.3506 35.3699 60.5637 34.8578 60.5654 34.3234Z" fill="white"/>
<path d="M26.242 66.6232C26.242 57.8078 17.9436 49.3881 17.5798 49.0434C17.3929 48.8552 17.1706 48.7059 16.9258 48.604C16.6809 48.5021 16.4183 48.4496 16.1531 48.4496C15.8879 48.4496 15.6253 48.5021 15.3804 48.604C15.1356 48.7059 14.9133 48.8552 14.7264 49.0434C14.369 49.3945 6.05782 57.8078 6.05782 66.6232C6.05782 69.2998 7.12109 71.8667 9.01372 73.7594C10.9064 75.652 13.4733 76.7153 16.1499 76.7153C18.8265 76.7153 21.3935 75.652 23.2861 73.7594C25.1787 71.8667 26.242 69.2998 26.242 66.6232ZM10.0921 66.6232C10.0921 61.459 13.9796 56.097 16.1499 53.499C18.3203 56.097 22.2077 61.459 22.2077 66.6232C22.2077 68.2315 21.5688 69.774 20.4316 70.9112C19.2943 72.0485 17.7519 72.6874 16.1435 72.6874C14.5352 72.6874 12.9928 72.0485 11.8555 70.9112C10.7182 69.774 10.0793 68.2315 10.0793 66.6232H10.0921Z" fill="white"/>
</svg>
